<svg height="512pt" viewBox="0 0 512 512" width="512pt" xmlns="http://www.w3.org/2000/svg"><path d="m512 256c0 91.292969-47.792969 171.4375-119.722656 216.742188-19.363282 12.207031-40.46875 21.890624-62.875 28.578124-23.246094 6.949219-47.886719 10.679688-73.402344 10.679688-24.710938 0-48.597656-3.5-71.199219-10.03125h-.011719c-13.175781-3.8125-25.914062-8.652344-38.117187-14.429688-8.484375-4.003906-16.71875-8.484374-24.667969-13.375-73.195312-45.046874-122.003906-125.910156-122.003906-218.164062 0-141.386719 114.613281-256 256-256s256 114.613281 256 256zm0 0" fill="#f73b6c"/><path d="m382.121094 449.578125v29.246094c-15.039063 8.515625-31.015625 15.578125-47.753906 20.941406-1.734376.5625-3.46875 1.097656-5.222657 1.617187-6.511719 1.945313-13.136719 3.636719-19.855469 5.046876-2.945312.628906-5.902343 1.203124-8.882812 1.714843-14.429688 2.539063-29.265625 3.855469-44.40625 3.855469s-29.976562-1.316406-44.40625-3.84375c-2.980469-.511719-5.9375-1.089844-8.882812-1.714844-7.804688-1.652344-15.464844-3.65625-22.988282-5.996094-.417968-.136718-.835937-.261718-1.253906-.398437-.28125-.085937-.554688-.179687-.835938-.273437-16.730468-5.359376-32.714843-12.421876-47.753906-20.949219v-29.246094c0-35.285156 19.207032-66.089844 47.753906-82.503906 7.742188-4.464844 16.164063-7.859375 25.078126-9.992188 4.710937-1.136719 9.558593-1.921875 14.523437-2.316406 2.570313-.210937 5.160156-.316406 7.785156-.316406h61.953125c7.324219 0 14.449219.816406 21.292969 2.382812.34375.085938.691406.15625 1.023437.242188 8.914063 2.140625 17.335938 5.535156 25.078126 10 28.535156 16.425781 47.753906 47.226562 47.753906 82.503906zm0 0" fill="#0c85a5"/><path d="m382.121094 449.578125v29.246094c-35.425782 20.105469-76.121094 31.996093-119.507813 33.09375-2.203125.050781-4.398437.082031-6.613281.082031s-4.417969-.03125-6.613281-.09375c-24.671875-.617188-48.464844-4.734375-70.917969-11.859375v-50.46875c0-52.539063 42.601562-95.128906 95.148438-95.128906h13.355468c52.554688 0 95.148438 42.589843 95.148438 95.128906zm0 0" fill="#1da2dd"/><path d="m289.9375 317.800781v41.65625c0 15.25-10.054688 28.140625-23.90625 32.421875-3.167969.984375-6.546875 1.515625-10.042969 1.515625-18.742187 0-33.9375-15.191406-33.9375-33.9375v-41.65625zm0 0" fill="#eaa27f"/><path d="m289.9375 356.820312v2.636719c0 15.25-10.054688 28.140625-23.90625 32.421875-12.492188-3.839844-21.890625-14.707031-23.625-28 2.265625.136719 4.546875.207032 6.835938.207032 6.421874 0 12.71875-.507813 18.851562-1.515626 7.554688-1.214843 14.855469-3.160156 21.84375-5.75zm0 0" fill="#f6ba97"/><path d="m161.351562 249.535156c0 15.710938-11.476562 28.742188-26.507812 31.160156-1.640625.265626-3.332031.402344-5.054688.402344-17.4375 0-31.566406-14.125-31.566406-31.5625s14.128906-31.566406 31.566406-31.566406c1.722657 0 3.414063.140625 5.054688.40625 15.03125 2.417969 26.507812 15.445312 26.507812 31.160156zm0 0" fill="#f6ba97"/><path d="m161.351562 249.535156c0 15.710938-11.476562 28.742188-26.507812 31.160156-2.730469-9.929687-4.1875-20.378906-4.1875-31.160156 0-10.785156 1.457031-21.234375 4.1875-31.160156 15.03125 2.417969 26.507812 15.445312 26.507812 31.160156zm0 0" fill="#eaa27f"/><path d="m141.070312 249.535156c0 6.230469-5.050781 11.28125-11.28125 11.28125-6.230468 0-11.28125-5.050781-11.28125-11.28125 0-6.230468 5.050782-11.28125 11.28125-11.28125 6.230469 0 11.28125 5.050782 11.28125 11.28125zm0 0" fill="#eaa27f"/><path d="m350.636719 249.535156c0 15.710938 11.480469 28.742188 26.511719 31.160156 1.640624.265626 3.332031.402344 5.054687.402344 17.4375 0 31.566406-14.125 31.566406-31.5625s-14.128906-31.566406-31.566406-31.566406c-1.722656 0-3.414063.140625-5.054687.40625-15.03125 2.417969-26.511719 15.445312-26.511719 31.160156zm0 0" fill="#f6ba97"/><path d="m350.636719 249.535156c0 15.710938 11.480469 28.742188 26.511719 31.160156 2.726562-9.929687 4.1875-20.378906 4.1875-31.160156 0-10.785156-1.457032-21.234375-4.1875-31.160156-15.03125 2.417969-26.511719 15.445312-26.511719 31.160156zm0 0" fill="#eaa27f"/><path d="m393.484375 249.535156c0 6.230469-5.050781 11.28125-11.28125 11.28125s-11.28125-5.050781-11.28125-11.28125c0-6.230468 5.050781-11.28125 11.28125-11.28125s11.28125 5.050782 11.28125 11.28125zm0 0" fill="#eaa27f"/><path d="m373.4375 188.039062v44.722657c0 58.441406-42.695312 106.925781-98.597656 115.921875-.1875.03125-.386719.0625-.574219.09375-5.945313.949218-12.046875 1.421875-18.277344 1.421875-64.855469 0-117.433593-52.582031-117.433593-117.4375v-44.722657c0-13.65625 2.328124-26.78125 6.632812-38.972656 16.0625-45.707031 59.613281-78.472656 110.800781-78.472656h.011719c6.21875 0 12.328125.480469 18.285156 1.421875 56.175782 8.777344 99.152344 57.382813 99.152344 116.023437zm0 0" fill="#eaa27f"/><path d="m373.4375 188.039062v44.722657c0 58.441406-42.695312 106.925781-98.597656 115.921875-.1875.03125-.386719.0625-.574219.09375-56.175781-8.777344-99.140625-57.386719-99.140625-116.015625v-44.722657c0-58.640624 42.976562-107.246093 99.160156-116.023437 56.175782 8.777344 99.152344 57.382813 99.152344 116.023437zm0 0" fill="#f6ba97"/><g fill="#eaa27f"><path d="m335.929688 263.597656c0 8.078125-6.550782 14.628906-14.628907 14.628906s-14.628906-6.550781-14.628906-14.628906c0-8.082031 6.550781-14.628906 14.628906-14.628906s14.628907 6.546875 14.628907 14.628906zm0 0"/><path d="m205.316406 263.597656c0 8.078125-6.546875 14.628906-14.628906 14.628906-8.078125 0-14.628906-6.550781-14.628906-14.628906 0-8.082031 6.550781-14.628906 14.628906-14.628906 8.082031 0 14.628906 6.546875 14.628906 14.628906zm0 0"/><path d="m319.0625 222.84375c0-10.773438-8.730469-19.503906-19.503906-19.503906-10.773438 0-19.507813 8.730468-19.507813 19.503906"/><path d="m231.945312 222.84375c0-10.773438-8.730468-19.503906-19.503906-19.503906-10.773437 0-19.507812 8.730468-19.507812 19.503906"/></g><path d="m225.761719 231.148438c0 7.355468-5.964844 13.320312-13.320313 13.320312-7.359375 0-13.324218-5.964844-13.324218-13.320312 0-7.359376 5.964843-13.324219 13.324218-13.324219 7.355469 0 13.320313 5.964843 13.320313 13.324219zm0 0" fill="#2f373b"/><path d="m312.882812 231.148438c0 7.355468-5.964843 13.320312-13.324218 13.320312s-13.324219-5.964844-13.324219-13.320312c0-7.359376 5.964844-13.324219 13.324219-13.324219s13.324218 5.964843 13.324218 13.324219zm0 0" fill="#2f373b"/><path d="m269.320312 264.691406h-26.644531c-3.171875 0-5.746093-2.574218-5.746093-5.746094 0-3.175781 2.574218-5.75 5.746093-5.75h26.644531c3.175782 0 5.746094 2.574219 5.746094 5.75 0 3.171876-2.570312 5.746094-5.746094 5.746094zm0 0" fill="#eaa27f"/><path d="m256 301.050781c-9.835938 0-19.667969-2.464843-28.632812-7.394531-2.527344-1.386719-3.449219-4.5625-2.0625-7.09375 1.390624-2.527344 4.570312-3.449219 7.097656-2.0625 14.777344 8.125 32.417968 8.125 47.195312 0 2.527344-1.386719 5.703125-.464844 7.09375 2.0625 1.390625 2.53125.46875 5.707031-2.058594 7.09375-8.964843 4.929688-18.800781 7.394531-28.632812 7.394531zm0 0" fill="#eaa27f"/><path d="m223.046875 228.796875c0 3.152344-2.554687 5.707031-5.710937 5.707031-3.152344 0-5.707032-2.554687-5.707032-5.707031s2.554688-5.710937 5.707032-5.710937c3.15625 0 5.710937 2.558593 5.710937 5.710937zm0 0" fill="#fff"/><path d="m310.820312 228.796875c0 3.152344-2.558593 5.707031-5.710937 5.707031s-5.707031-2.554687-5.707031-5.707031 2.554687-5.710937 5.707031-5.710937 5.710937 2.558593 5.710937 5.710937zm0 0" fill="#fff"/><path d="m392.277344 472.742188c-7.160156 4.515624-14.566406 8.695312-22.195313 12.488281-12.96875 6.476562-26.5625 11.878906-40.679687 16.089843-52.933594-87.132812 25.070312-215.152343 25.070312-269.070312 0-40.574219-19.730468-60.8125-30.679687-68.921875-4.210938-3.113281-7.117188-4.441406-7.117188-4.441406l23.167969-69.839844c29.257812 10.5 79.589844 61.785156 48.679688 160.484375-23.039063 73.5625-6.277344 175.855469 3.753906 223.210938zm0 0" fill="#ffe05c"/><path d="m370.082031 485.230469c-12.96875 6.476562-26.5625 11.878906-40.679687 16.089843-52.933594-87.132812 25.070312-215.152343 25.070312-269.070312 0-40.574219-19.730468-60.8125-30.679687-68.921875l6.738281-27.554687c22.300781 15.320312 46.667969 82.371093 27.167969 110.84375-19.496094 28.472656 4.179687 13.84375 4.179687 13.84375s-59.652344 136.027343 8.203125 224.769531zm0 0" fill="#e89f18"/><path d="m184.800781 501.96875c-22.339843-6.457031-43.425781-15.871094-62.796875-27.804688 10-46.695312 27.332032-150.328124 4.0625-224.632812-30.90625-98.699219 19.425782-149.984375 48.683594-160.484375l23.164062 69.839844s-14.316406 6.519531-25.328124 24.628906c-.019532.019531-.03125.050781-.042969.074219-6.863281 11.292968-12.421875 27.113281-12.421875 48.660156 0 54.050781 78.386718 182.574219 24.679687 269.71875zm0 0" fill="#e89f18"/><path d="m353.425781 107.90625c0 20.824219-11.128906 39.652344-29.046875 53.121094-17.316406 13.042968-40.992187 21.066406-67.082031 21.066406-53.09375 0-96.132813-33.214844-96.132813-74.1875 0-30.1875 23.375-56.171875 56.917969-67.75 11.972657-4.136719 25.242188-6.4375 39.214844-6.4375 53.089844 0 96.128906 33.21875 96.128906 74.1875zm0 0" fill="#e89f18"/><path d="m353.425781 107.90625c0 20.824219-11.128906 39.652344-29.046875 53.121094-11.976562 4.140625-25.246094 6.4375-39.214844 6.4375-53.09375 0-96.132812-33.214844-96.132812-74.1875 0-20.835938 11.128906-39.664063 29.050781-53.121094 11.972657-4.136719 25.242188-6.4375 39.214844-6.4375 53.089844 0 96.128906 33.21875 96.128906 74.1875zm0 0" fill="#ffe05c"/><path d="m184.800781 501.96875h-.011719c-13.175781-3.8125-25.914062-8.652344-38.117187-14.429688 12.046875-32.664062 38.933594-115.765624 20.761719-164.90625-22.964844-62.128906-17.25-107.039062 5.109375-139.042968-6.863281 11.292968-12.421875 27.113281-12.421875 48.660156 0 54.050781 78.386718 182.574219 24.679687 269.71875zm0 0" fill="#ffe05c"/><path d="m392.429688 261.261719c-.558594 3.421875-2.445313 6.292969-5.046876 8.164062-2.613281 1.871094-5.933593 2.75-9.347656 2.195313l-29.980468-4.878906c-6.835938-1.113282-11.472657-7.554688-10.359376-14.390626.558594-3.425781 2.441407-6.292968 5.046876-8.167968 2.601562-1.875 5.921874-2.753906 9.34375-2.195313l29.980468 4.882813c6.839844 1.113281 11.476563 7.550781 10.363282 14.390625zm0 0" fill="#0c85a5"/><path d="m392.429688 261.261719c-.558594 3.421875-2.445313 6.292969-5.046876 8.164062-2.613281 1.871094-5.933593 2.75-9.347656 2.195313l-15.023437-2.445313c-6.839844-1.113281-11.476563-7.554687-10.363281-14.390625.558593-3.425781 2.445312-6.292968 5.046874-8.167968 2.601563-1.871094 5.921876-2.75 9.34375-2.195313l15.027344 2.449219c6.839844 1.113281 11.476563 7.550781 10.363282 14.390625zm0 0" fill="#1da2dd"/><path d="m168.53125 252.347656c-.558594-3.421875-2.445312-6.292968-5.046875-8.164062-2.613281-1.871094-5.933594-2.75-9.347656-2.195313l-29.980469 4.878907c-6.835938 1.113281-11.472656 7.554687-10.359375 14.390624.558594 3.425782 2.441406 6.292969 5.046875 8.167969 2.601562 1.875 5.921875 2.753907 9.34375 2.195313l29.980469-4.882813c6.839843-1.113281 11.472656-7.550781 10.363281-14.390625zm0 0" fill="#0c85a5"/><path d="m168.53125 252.347656c-.558594-3.421875-2.445312-6.292968-5.046875-8.164062-2.613281-1.871094-5.933594-2.75-9.347656-2.195313l-15.023438 2.445313c-6.839843 1.113281-11.476562 7.554687-10.363281 14.390625.558594 3.425781 2.441406 6.292969 5.046875 8.167969 2.601563 1.871093 5.921875 2.75 9.34375 2.195312l15.027344-2.449219c6.839843-1.113281 11.472656-7.550781 10.363281-14.390625zm0 0" fill="#1da2dd"/></svg>