<?xml version="1.0" encoding="iso-8859-1"?>
<!-- Generator: Adobe Illustrator 19.0.0, SVG Export Plug-In . SVG Version: 6.00 Build 0)  -->
<svg version="1.1" id="Capa_1" xmlns="http://www.w3.org/2000/svg" xmlns:xlink="http://www.w3.org/1999/xlink" x="0px" y="0px"
	 viewBox="0 0 512 512" style="enable-background:new 0 0 512 512;" xml:space="preserve">
<circle style="fill:#590F38;" cx="256" cy="256" r="256"/>
<path style="fill:#440E2E;" d="M512,256c0-5.25-0.177-10.459-0.489-15.631L395.362,123.17L129.199,400.862l110.614,110.614
	C245.168,511.81,250.561,512,256,512C397.385,512,512,397.385,512,256z"/>
<circle style="fill:#B9EAFF;" cx="256" cy="256" r="192.52"/>
<path style="fill:#35CCFF;" d="M256,63.476c-0.111,0-0.222,0.004-0.333,0.004v385.04c0.111,0,0.222,0.004,0.333,0.004
	c106.328,0,192.524-86.196,192.524-192.524S362.328,63.476,256,63.476z"/>
<path style="fill:#00BAFF;" d="M444.536,216.848l-35.632,5.071c-5.734-14.401-19.792-24.585-36.237-24.585
	c-20.279,0-36.937,15.479-38.818,35.265l-17.098,2.433L282.053,65.237c-8.521-1.153-17.216-1.761-26.053-1.761
	c-0.622,0-1.239,0.018-1.86,0.023l35.831,175.343l-47.441,6.751l-46.283-50.218c2.609-5.233,4.085-11.131,4.085-17.376
	c0-21.539-17.461-39-39-39c-5.117,0-9.999,0.995-14.476,2.787l-23.414-25.404c-6.553,6.224-12.665,12.907-18.292,19.993
	l21.653,23.493c-2.851,5.418-4.472,11.583-4.472,18.13c0,21.539,17.461,39,39,39c5.418,0,10.577-1.107,15.266-3.103l33.471,36.316
	l-78.195,11.127L77.03,184.91c-4.172,10.494-7.448,21.442-9.733,32.749l34.422,47.97l-37.668,5.36
	c0.7,9.096,2.044,18.01,3.965,26.708l51.46-7.323l28.178,39.268c-2.551,5.186-3.99,11.019-3.99,17.189c0,21.539,17.461,39,39,39
	c1.719,0,3.407-0.123,5.067-0.339l44.152,61.529c7.9,0.987,15.947,1.5,24.115,1.5c3.358,0,6.695-0.087,10.011-0.257l-54.199-75.53
	c6.127-6.889,9.855-15.959,9.855-25.903c0-21.539-17.461-39-39-39c-5.399,0-10.542,1.098-15.218,3.081l-17.817-24.829l82.659-11.763
	l83.429,90.521l14.102,69.007c8.667-3.601,17.012-7.817,24.984-12.594l-3.677-17.995l11.828,12.833
	c7.527-5.039,14.676-10.597,21.402-16.618l-43.69-47.404l-18.502-90.539l18.684-2.659c7.066,9.956,18.678,16.459,31.816,16.459
	c17.065,0,31.56-10.965,36.85-26.23l38.6-5.493C447.538,234.504,446.337,225.567,444.536,216.848z M264.752,269.704l30.635-4.359
	l9.872,48.31L264.752,269.704z"/>
<g>
	<path style="fill:#008CC3;" d="M256,448.524c3.358,0,6.695-0.087,10.011-0.257l-10.344-14.415v14.667
		C255.778,448.519,255.888,448.524,256,448.524z"/>
	<path style="fill:#008CC3;" d="M444.536,216.848l-35.632,5.071c-5.734-14.401-19.792-24.585-36.237-24.585
		c-20.279,0-36.937,15.479-38.818,35.265l-17.098,2.433L282.053,65.237c-8.521-1.153-17.216-1.761-26.053-1.761
		c-0.111,0-0.222,0.003-0.333,0.004v7.488l34.305,167.874l-34.305,4.882v55.961l60.053,65.159l14.102,69.007
		c8.667-3.601,17.012-7.817,24.984-12.594l-3.677-17.995l11.828,12.833c7.527-5.039,14.676-10.597,21.402-16.618l-43.69-47.404
		l-18.502-90.539l18.684-2.659c7.066,9.956,18.678,16.459,31.816,16.459c17.065,0,31.56-10.965,36.85-26.23l38.6-5.493
		C447.538,234.504,446.337,225.567,444.536,216.848z M264.752,269.704l30.635-4.359l9.872,48.31L264.752,269.704z"/>
</g>
<g>
</g>
<g>
</g>
<g>
</g>
<g>
</g>
<g>
</g>
<g>
</g>
<g>
</g>
<g>
</g>
<g>
</g>
<g>
</g>
<g>
</g>
<g>
</g>
<g>
</g>
<g>
</g>
<g>
</g>
</svg>
