<?xml version="1.0" encoding="iso-8859-1"?>
<!-- Generator: Adobe Illustrator 19.0.0, SVG Export Plug-In . SVG Version: 6.00 Build 0)  -->
<svg version="1.1" id="Capa_1" xmlns="http://www.w3.org/2000/svg" xmlns:xlink="http://www.w3.org/1999/xlink" x="0px" y="0px"
	 viewBox="0 0 512 512" style="enable-background:new 0 0 512 512;" xml:space="preserve">
<circle style="fill:#415870;" cx="255.998" cy="256" r="255.998"/>
<path style="fill:#FEAF62;" d="M354.157,304.01c-55.434,27.225-122.497,4.111-149.33-51.642
	c-26.027-54.08-3.994-119.768,49.389-147.197c0.701-0.36,1.404-0.713,2.109-1.056c4.928-2.403,3.601-9.807-1.852-10.381
	c-26.195-2.759-53.468,1.663-78.817,14.3c-69.893,34.842-99.07,120.192-65.129,190.527
	c34.604,71.709,120.917,101.418,192.267,66.376c25.121-12.338,45.018-31.052,58.708-53.231c2.913-4.719-2.194-10.237-7.168-7.784
	C354.276,303.951,354.216,303.98,354.157,304.01z"/>
<g>
	<path style="fill:#62788E;" d="M220.883,106.341c0,18.756-15.203,33.959-33.959,33.959l-100.717-1.045
		c-9.383,0-17.868,3.803-24.012,9.947s-9.947,14.628-9.947,24.012c0,18.756,15.203,33.959,33.959,33.959h38.661
		c9.383,0,17.868,3.803,24.012,9.947c6.144,6.144,9.947,14.628,9.947,24.012c0,18.756-15.203,33.959-33.959,33.959H6.795
		c-2.09,0-4.138-0.188-6.123-0.554c-0.449-6.123-0.669-12.298-0.669-18.536c0-72.348,30.009-137.685,78.273-184.246l108.648,0.627
		C205.68,72.382,220.883,87.585,220.883,106.341z"/>
	<path style="fill:#62788E;" d="M512,256.001c0,38.912-8.683,75.807-24.221,108.836c-8.265-0.679-15.684-4.305-21.211-9.832
		c-6.144-6.144-9.947-14.629-9.947-24.012c0-18.756-15.203-33.959-33.959-33.959h-38.661c-9.383,0-17.868-3.803-24.012-9.947
		c-6.144-6.144-9.947-14.628-9.947-24.012c0-18.756,15.203-33.959,33.959-33.959h38.661c9.383,0,17.868-3.803,24.012-9.947
		c6.144-6.144,9.947-14.628,9.947-24.012c0-18.756,15.203-33.959,33.959-33.959l3.302,0.021
		C505.574,190.539,512,222.523,512,256.001z"/>
</g>
<g>
	<circle style="fill:#E8E4DB;" cx="355.932" cy="100.907" r="8.882"/>
	<circle style="fill:#E8E4DB;" cx="316.748" cy="182.92" r="8.882"/>
	<circle style="fill:#E8E4DB;" cx="384.666" cy="414.353" r="8.882"/>
	<circle style="fill:#E8E4DB;" cx="252.498" cy="39.781" r="8.882"/>
	<circle style="fill:#E8E4DB;" cx="232.123" cy="356.372" r="8.882"/>
	<circle style="fill:#E8E4DB;" cx="104.249" cy="374.647" r="8.882"/>
	<circle style="fill:#E8E4DB;" cx="159.315" cy="447.675" r="8.882"/>
	<circle style="fill:#E8E4DB;" cx="316.613" cy="336.478" r="8.882"/>
	<circle style="fill:#E8E4DB;" cx="176.096" cy="190.82" r="8.882"/>
</g>
<path style="fill:#FEAF62;" d="M421.759,143.221c9.814-0.66,19.207-2.844,27.961-6.3c-8.754-3.455-18.148-5.639-27.961-6.3
	c-0.66-9.814-2.844-19.207-6.3-27.961c-3.455,8.754-5.639,18.148-6.3,27.961c-9.814,0.66-19.207,2.844-27.961,6.3
	c8.754,3.455,18.148,5.639,27.961,6.3c0.66,9.814,2.844,19.207,6.3,27.961C418.915,162.428,421.099,153.034,421.759,143.221z"/>
<g>
</g>
<g>
</g>
<g>
</g>
<g>
</g>
<g>
</g>
<g>
</g>
<g>
</g>
<g>
</g>
<g>
</g>
<g>
</g>
<g>
</g>
<g>
</g>
<g>
</g>
<g>
</g>
<g>
</g>
</svg>
