<svg height="512pt" viewBox="0 0 512 512" width="512pt" xmlns="http://www.w3.org/2000/svg"><path d="m464 224h-416v-224h293.921875l122.078125 104.640625zm0 0" fill="#e4edfb"/><path d="m341.921875 0v104.640625h122.078125zm0 0" fill="#77959e"/><g fill="#d7e1f2"><path d="m64 416c-8.835938 0-16-7.164062-16-16v-64h32v64c0 8.835938-7.164062 16-16 16zm0 0"/><path d="m128 480c-8.835938 0-16-7.164062-16-16v-128h32v128c0 8.835938-7.164062 16-16 16zm0 0"/><path d="m192 448c-8.835938 0-16-7.164062-16-16v-96h32v96c0 8.835938-7.164062 16-16 16zm0 0"/><path d="m256 480c-8.835938 0-16-7.164062-16-16v-128h32v128c0 8.835938-7.164062 16-16 16zm0 0"/><path d="m320 512c-8.835938 0-16-7.164062-16-16v-160h32v160c0 8.835938-7.164062 16-16 16zm0 0"/><path d="m384 512c-8.835938 0-16-7.164062-16-16v-160h32v160c0 8.835938-7.164062 16-16 16zm0 0"/><path d="m432 336h32v48h-32zm0 0"/><path d="m448 512c-8.835938 0-16-7.164062-16-16v-80h32v80c0 8.835938-7.164062 16-16 16zm0 0"/><path d="m176 480h32v32h-32zm0 0"/><path d="m64 512c-8.835938 0-16-7.164062-16-16v-48h32v48c0 8.835938-7.164062 16-16 16zm0 0"/><path d="m112 64h176c8.835938 0 16 7.164062 16 16s-7.164062 16-16 16h-176c-8.835938 0-16-7.164062-16-16s7.164062-16 16-16zm0 0"/><path d="m112 128h128c8.835938 0 16 7.164062 16 16s-7.164062 16-16 16h-128c-8.835938 0-16-7.164062-16-16s7.164062-16 16-16zm0 0"/></g><path d="m512 352h-512v-128c0-17.671875 14.328125-32 32-32h448c17.671875 0 32 14.328125 32 32zm0 0" fill="#e76e54"/><path d="m64 256h32v32h-32zm0 0" fill="#fff"/><path d="m128 256h32v32h-32zm0 0" fill="#fff"/></svg>