<svg height="512pt" viewBox="0 0 512 512.00012" width="512pt" xmlns="http://www.w3.org/2000/svg"><path d="m512 256c0 67.195312-25.886719 128.34375-68.234375 174.015625-8.78125 9.46875-16.902344-26.320313-27.015625-18.265625-9.332031 7.433594-20.570312 58.828125-30.898438 64.921875-7.183593 4.234375-14.589843 8.128906-22.199218 11.660156-32.722656 15.191407-69.199219-2.582031-107.652344-2.582031-38.496094 0-75.007812 17.753906-107.761719 2.53125-7.597656-3.53125-14.992187-7.421875-22.164062-11.65625-10.101563-5.957031-19.753907-44.878906-28.902344-52.125-10.359375-8.207031-20.070313 15.085938-29.042969 5.398438-42.285156-45.660157-68.128906-106.761719-68.128906-173.898438 0-141.386719 114.613281-256 256-256s256 114.613281 256 256zm0 0" fill="#0092e2"/><path d="m353 159.691406h-23.230469c-5.523437 0-10-4.476562-10-10v-54c0-5.523437 4.476563-10 10-10h23.230469c5.523438 0 10 4.476563 10 10v54c0 5.523438-4.476562 10-10 10zm0 0" fill="#495560"/><path d="m181.5 159.691406h-23.230469c-5.523437 0-10-4.476562-10-10v-54c0-5.523437 4.476563-10 10-10h23.230469c5.523438 0 10 4.476563 10 10v54c0 5.523438-4.476562 10-10 10zm0 0" fill="#3d4751"/><path d="m385.675781 476.753906c21.570313-12.699218 41.117188-28.46875 58.035157-46.710937v-123.085938h-58.035157zm0 0" fill="#fefefe"/><path d="m385.675781 306.957031v169.796875c10.144531-5.972656 19.832031-12.628906 29.019531-19.898437v-149.898438zm0 0" fill="#ebeaec"/><path d="m68.289062 430.046875c16.921876 18.238281 36.464844 34.007813 58.035157 46.707031v-169.796875h-58.035157zm0 0" fill="#ebeaec"/><path d="m126.324219 476.753906v-169.796875h-29.015625v149.898438c9.183594 7.269531 18.871094 13.925781 29.015625 19.898437zm0 0" fill="#fefefe"/><path d="m335.480469 457.273438h-158.960938c-16.949219 0-29.785156 14.726562-28.085937 31.078124 32.707031 15.167969 69.144531 23.648438 107.566406 23.648438s74.859375-8.480469 107.566406-23.648438c1.699219-16.351562-11.136718-31.078124-28.085937-31.078124zm0 0" fill="#fefefe"/><path d="m176.519531 457.273438c-16.949219 0-29.785156 14.726562-28.085937 31.078124 32.707031 15.167969 69.144531 23.648438 107.566406 23.648438v-54.726562zm0 0" fill="#ebeaec"/><g fill="#495560"><path d="m176.28125 307c0 37.777344-30.625 68.398438-68.398438 68.398438-37.777343 0-68.402343-30.621094-68.402343-68.398438s30.625-68.398438 68.402343-68.398438c37.773438 0 68.398438 30.621094 68.398438 68.398438zm0 0"/><path d="m472.519531 307c0 37.777344-30.625 68.398438-68.402343 68.398438-37.773438 0-68.398438-30.621094-68.398438-68.398438s30.625-68.398438 68.398438-68.398438c37.777343 0 68.402343 30.621094 68.402343 68.398438zm0 0"/><path d="m305.910156 436.382812c0 27.5625-22.34375 49.910157-49.910156 49.910157s-49.910156-22.347657-49.910156-49.910157c0-27.566406 22.34375-49.914062 49.910156-49.914062s49.910156 22.347656 49.910156 49.914062zm0 0"/></g><path d="m296.425781 201.070312c-.890625-.214843-1.800781-.320312-2.714843-.320312h-75.421876c-.914062 0-1.824218.105469-2.714843.320312l-120.125 28.878907c-6.617188 1.589843-10.449219 8.503906-8.296875 14.960937l45.769531 137.109375c1.582031 4.738281 6.015625 7.929688 11.011719 7.929688h17.394531c5.328125 0 9.972656 3.625 11.261719 8.792969l7.210937 28.847656c1.292969 5.164062 5.9375 8.789062 11.261719 8.789062h129.871094c5.328125 0 9.96875-3.625 11.261718-8.789062l7.210938-28.847656c1.292969-5.167969 5.9375-8.792969 11.261719-8.792969h17.398437c4.992188 0 9.425782-3.191407 11.007813-7.929688l45.769531-137.109375c2.15625-6.457031-1.679688-13.371094-8.296875-14.960937zm0 0" fill="#fefefe"/><path d="m256 200.75h-37.710938c-.914062 0-1.824218.109375-2.714843.320312l-120.125 28.878907c-6.617188 1.589843-10.449219 8.503906-8.296875 14.960937l45.769531 137.109375c1.582031 4.738281 6.015625 7.929688 11.011719 7.929688h17.394531c5.328125 0 9.972656 3.625 11.261719 8.792969l7.210937 28.847656c1.292969 5.164062 5.9375 8.789062 11.261719 8.789062h64.9375zm0 0" fill="#ebeaec"/><path d="m299.253906 248.941406s-9.769531 32.15625-43.253906 32.15625-43.253906-32.15625-43.253906-32.15625l-12.089844-125.273437h110.6875zm0 0" fill="#495560"/><path d="m201.316406 16.59375c-21.210937 13.222656-34.066406 36.492188-34.066406 61.484375v94.878906c0 6.097657 2.414062 11.949219 6.710938 16.273438l49.039062 49.34375c4.332031 4.359375 10.226562 6.8125 16.375 6.8125h33.253906c6.148438 0 12.039063-2.453125 16.375-6.8125l49.039063-49.34375c4.296875-4.324219 6.710937-10.175781 6.710937-16.273438v-84.207031c-.003906-66.523438-73.191406-115.949219-143.4375-72.15625zm0 0" fill="#fefefe"/><path d="m256 20c-37.96875 0-68.75 30.78125-68.75 68.75v84.207031c0 .820313.316406 1.59375.894531 2.175781l33.003907 33.207032 7.519531-16.671875h54.664062l7.519531 16.671875 33.003907-33.207032c.578125-.582031.894531-1.355468.894531-2.175781v-84.207031c0-37.96875-30.78125-68.75-68.75-68.75zm0 0" fill="#495560"/><path d="m207.699219 88.300781c0-34.328125 25.328125-62.734375 58.316406-67.566406-3.273437-.476563-6.613281-.734375-10.015625-.734375-37.96875 0-68.75 30.78125-68.75 68.75v84.207031c0 .820313.316406 1.59375.894531 2.175781l19.554688 19.671876zm0 0" fill="#3d4751"/><path d="m187.25 78.082031c0-24.996093 12.855469-48.265625 34.066406-61.488281 14.988282-9.34375 30.113282-14.441406 44.628906-16.039062-20.265624-2.257813-42.59375 2.300781-64.628906 16.039062-21.210937 13.222656-34.066406 36.492188-34.066406 61.488281v94.875c0 6.097657 2.410156 11.949219 6.710938 16.273438l49.039062 49.34375s-35.75-50.238281-35.75-65.617188zm0 0" fill="#ebeaec"/><path d="m304.75 374.28125h-97.5c-6.414062 0-11.609375-5.195312-11.609375-11.605469v-44.109375c0-6.410156 5.199219-11.605468 11.609375-11.605468h97.5c6.410156 0 11.609375 5.195312 11.609375 11.605468v44.109375c0 6.410157-5.199219 11.605469-11.609375 11.605469zm0 0" fill="#00adfc"/><path d="m225.640625 362.675781v-44.109375c0-6.410156 5.199219-11.605468 11.609375-11.605468h-30c-6.414062 0-11.609375 5.195312-11.609375 11.605468v44.109375c0 6.410157 5.199219 11.605469 11.609375 11.605469h30c-6.410156 0-11.609375-5.195312-11.609375-11.605469zm0 0" fill="#00a5fb"/><path d="m238.105469 116.25c0 10.003906-8.113281 18.113281-18.117188 18.113281-10.007812 0-18.117187-8.109375-18.117187-18.113281 0-10.007812 8.109375-18.117188 18.117187-18.117188 10.003907 0 18.117188 8.109376 18.117188 18.117188zm0 0" fill="#00adfc"/><path d="m211.871094 116.25c0-8.269531 5.546875-15.230469 13.117187-17.402344-1.589843-.457031-3.261719-.714844-5-.714844-10.007812 0-18.117187 8.109376-18.117187 18.117188 0 10.003906 8.109375 18.113281 18.117187 18.113281 1.738281 0 3.410157-.257812 5-.714843-7.570312-2.171876-13.117187-9.132813-13.117187-17.398438zm0 0" fill="#00a5fb"/><path d="m310.128906 116.25c0 10.003906-8.109375 18.113281-18.117187 18.113281-10.003907 0-18.117188-8.109375-18.117188-18.113281 0-10.007812 8.113281-18.117188 18.117188-18.117188 10.007812 0 18.117187 8.109376 18.117187 18.117188zm0 0" fill="#00adfc"/><path d="m283.894531 116.25c0-8.269531 5.546875-15.230469 13.117188-17.402344-1.589844-.457031-3.261719-.714844-5-.714844-10.003907 0-18.117188 8.109376-18.117188 18.117188 0 10.003906 8.113281 18.113281 18.117188 18.113281 1.738281 0 3.410156-.257812 5-.714843-7.570313-2.171876-13.117188-9.132813-13.117188-17.398438zm0 0" fill="#00a5fb"/></svg>