<svg height="391pt" viewBox="-13 0 391 391.46344" width="391pt" xmlns="http://www.w3.org/2000/svg"><path d="m313.117188 17.953125c11.5 11.503906 17.957031 27.105469 17.945312 43.371094s-6.488281 31.859375-18.003906 43.347656l-43.328125 43.21875-.890625-.898437-85.671875-85.667969 43.222656-43.320313c11.484375-11.519531 27.082031-17.9960935 43.347656-18.003906s31.871094 6.449219 43.371094 17.953125zm0 0" fill="#00acea"/><path d="m268.839844 146.992188.890625.898437-143.300781 142.941406-86.199219-86.199219 142.9375-143.308593zm0 0" fill="#00efd1"/><path d="m126.429688 290.832031-110.179688 23.980469 23.980469-110.179688zm0 0" fill="#fedb41"/><path d="m354.503906 391.464844h-344.273437c-5.523438 0-10-4.480469-10-10 0-5.523438 4.476562-10 10-10h344.273437c5.523438 0 10 4.476562 10 10 0 5.519531-4.476562 10-10 10zm0 0" fill="#00acea"/></svg>