<svg height="512" viewBox="0 0 50 60" width="512" xmlns="http://www.w3.org/2000/svg"><g id="Page-1" fill="none" fill-rule="evenodd"><g id="030---Wheel-Bin"><path id="Shape" d="m47 12-5.55 43.51c-.2612309 1.9941129-1.9588522 3.4864802-3.97 3.49h-22.48c3.8659932 0 7-3.1340068 7-7s-3.1340068-7-7-7c-1.0386435-.003911-2.0645538.2286286-3 .68v-33.68z" fill="#cad9fc" fill-rule="nonzero"/><path id="Shape" d="m12 45v.68c.4780734-.230134.9815223-.4033204 1.5-.516-.4926893-.1081946-.9955715-.1631764-1.5-.164z" fill="#a4c2f7" fill-rule="nonzero"/><path id="Shape" d="m44 12-5.55 43.51c-.2612309 1.9941129-1.9588522 3.4864802-3.97 3.49h3c2.0111478-.0035198 3.7087691-1.4958871 3.97-3.49l5.55-43.51z" fill="#a4c2f7" fill-rule="nonzero"/><path id="Shape" d="m22 52c.0022571 3.4688768-2.5363664 6.4161925-5.9672858 6.9279573-3.4309195.5117648-6.71915679-1.5664012-7.72932749-4.884935s.56245536-6.8763598 3.69661329-8.3630223c.9354462-.4513714 1.9613565-.683911 3-.68 3.8659932 0 7 3.1340068 7 7z" fill="#7facfa" fill-rule="nonzero"/><circle id="Oval" cx="15" cy="52" fill="#e8edfc" fill-rule="nonzero" r="3"/><rect id="Rectangle-path" fill="#e8edfc" fill-rule="nonzero" height="5" rx="2" width="39" x="10" y="7"/><path id="Shape" d="m47 7h-3c1.1032019.0032948 1.9967052.89679813 2 2v1c-.0032948 1.1032019-.8967981 1.9967052-2 2h3c1.1032019-.0032948 1.9967052-.8967981 2-2v-1c-.0032948-1.10320187-.8967981-1.9967052-2-2z" fill="#cad9fc" fill-rule="nonzero"/><path id="Shape" d="m47 7h-35c0-3.31 7.84-6 17.5-6s17.5 2.69 17.5 6z" fill="#7facfa" fill-rule="nonzero"/><path id="Shape" d="m12 11.9999942v7.7300058l-8.96-2.45c-1.300547-.3533382-2.13815933-1.6154337-1.95855232-2.9511027.179607-1.335669 1.32086441-2.3316664 2.66855232-2.3288973z" fill="#a4c2f7" fill-rule="nonzero"/><path id="Shape" d="m9 12v6.91l3 .82v-7.73z" fill="#7facfa" fill-rule="nonzero"/><path id="Shape" d="m34 55h3.48l.511-4.001" stroke="#428dff" stroke-linecap="round" stroke-linejoin="round" stroke-width="2"/><g fill-rule="nonzero"><path id="Shape" d="m15 7c0-3.136 7.043-5.712 16-5.974-.495-.014-.994-.026-1.5-.026-9.66 0-17.5 2.69-17.5 6-1.1032019.0032948-1.9967052.89679813-2 2v1c.0032948 1.1032019.8967981 1.9967052 2 2h3c-1.1032019-.0032948-1.9967052-.8967981-2-2v-1c.0032948-1.10320187.8967981-1.9967052 2-2z" fill="#fff"/><path id="Shape" d="m7.092 17.568.208.056z" fill="#fff"/><path id="Shape" d="m6.055 17.284h-.015z" fill="#fff"/><path id="Shape" d="m3.734 17.47-.213-.059z" fill="#fff"/><path id="Shape" d="m6.285 17.347.21.057z" fill="#fff"/><path id="Shape" d="m3.289 17.348.229.063-.018-.006z" fill="#fff"/><path id="Shape" d="m6.734 17.47-.213-.059-.229-.063-.045-.012-.188-.052h-.016c-1.30767721-.3471241-2.15330292-1.6123884-1.97387495-2.9534031.17942796-1.3410147 1.32793881-2.3394633 2.68087495-2.3305969h-3c-1.34768791-.0027691-2.48894532.9932283-2.66855232 2.3288973-.17960701 1.335669.65800532 2.5977645 1.95855232 2.9511027h.015-.015.016l.188.052.045.012.214.058.285.078-.05-.013zm5.266-5.136v33.346c-2.95217665 1.405819-4.53781534 4.6681487-3.8193678 7.8580558s3.5495583 5.4574735 6.8193678 5.4619442h3c-3.2698095-.0044707-6.1009203-2.2720371-6.8193678-5.4619442s.8671911-6.4522368 3.8193678-7.8580558v-33.458zm-7.908 5.232.208.056z" fill="#fff"/><path id="Shape" d="m6.521 17.411.213.059.05.013-.284-.078.019.006z" fill="#fff"/><path id="Rectangle-path" d="m11 37.68h2v8h-2z" fill="#fff"/><path id="Shape" d="m12.02 42.68c-.5522847.0027614-1.0022386-.4427153-1.005-.995s.4427153-1.0022386.995-1.005h.01c.5522847 0 1 .4477153 1 1s-.4477153 1-1 1z" fill="#428dff"/><path id="Shape" d="m19 52c0-2.209139-1.790861-4-4-4s-4 1.790861-4 4 1.790861 4 4 4 4-1.790861 4-4zm-6 0c0-1.1045695.8954305-2 2-2s2 .8954305 2 2-.8954305 2-2 2-2-.8954305-2-2z" fill="#428dff"/><path id="Shape" d="m50 10v-1c-.0064444-1.31205656-.8647748-2.4677039-2.119-2.853-1.111-3.999-9.991-6.147-18.381-6.147s-17.27 2.148-18.381 6.147c-1.2542252.3852961-2.11255563 1.54094344-2.119 2.853v1c.00331443.3414397.06556225.679743.184 1h-5.434c-1.32809017.0004311-2.55355429.714333-3.20899277 1.8694192-.65543848 1.1550862-.63978398 2.5732446.04099277 3.7135808.48661936.8187058 1.27397057 1.4147816 2.194 1.661l8.224 2.249v17.187c0 .5522847.4477153 1 1 1s1-.4477153 1-1v-24.68h32.864l-5.4 42.38c-.1974846 1.4977546-1.4732834 2.6179264-2.984 2.62h-17.206c2.8920974-2.5537635 3.5452206-6.8098406 1.5519522-10.1132958s-6.0630314-4.7097949-9.670576-3.3417462c-3.60754458 1.3680488-5.72143466 5.1193461-5.02302827 8.9138373.69840639 3.7944913 4.00942727 6.5472904 7.86765207 6.5412047h22.48c2.5132087-.0074877 4.6335904-1.8723297 4.962-4.364l5.458-42.789c1.2457725-.3897569 2.0954584-1.5416882 2.1-2.847zm-41 42c0-3.3137085 2.6862915-6 6-6s6 2.6862915 6 6-2.6862915 6-6 6c-3.3123376-.0033074-5.99669262-2.6876624-6-6zm20.5-50c8.664 0 14.477 2.091 16.053 4h-32.106c1.576-1.909 7.389-4 16.053-4zm-26.2 14.314c-.729279-.1979022-1.23668869-.8583532-1.24-1.614-.00001618-.9349927.75502352-1.6945 1.69-1.7h7.25v5.42zm44.7-6.314c0 .5522847-.4477153 1-1 1h-35c-.5522847 0-1-.4477153-1-1v-1c0-.55228475.4477153-1 1-1h35c.5522847 0 1 .44771525 1 1z" fill="#428dff"/><path id="Shape" d="m31.137 21.454c-.531329-.9336979-1.5257339-1.5073931-2.6-1.5-1.0740418-.0065444-2.0680486.5669211-2.6 1.5l-1.726 3c-.2716903.47786-.1067416 1.0854205.3693057 1.3602745.4760473.2748541 1.0846885.1139391 1.3626943-.3602745l1.727-3c.1785082-.3098647.508895-.5008229.8665-.5008229s.6879918.1909582.8665.5008229l1.728 3c.2780058.4742136.886647.6351286 1.3626943.3602745.4760473-.274854.640996-.8824145.3693057-1.3602745z" fill="#428dff"/><path id="Shape" d="m35.072 35.27h-3.072c-.5522847 0-1 .4477153-1 1s.4477153 1 1 1h3.074c1.0721404.0006877 2.0631514-.5708375 2.5995194-1.4991666.5363679-.9283291.5365511-2.0723325.0004806-3.0008334l-1.537-2.66c-.2761424-.4785547-.8879453-.6426423-1.3665-.3665-.4785547.2761424-.6426423.8879453-.3665 1.3665l1.537 2.659c.1786305.3093971.1786329.6905896.0000064.999989-.1786266.3093994-.5087453.5000019-.8660064.500011z" fill="#428dff"/><path id="Shape" d="m22.674 31.109c.2761424-.4785547.1120547-1.0903576-.3665-1.3665s-1.0903576-.1120547-1.3665.3665l-1.536 2.66c-.5360705.9285009-.5358873 2.0725043.0004806 3.0008334.536368.9283291 1.527379 1.4998543 2.5995194 1.4991666h3.075c.5522847 0 1-.4477153 1-1s-.4477153-1-1-1h-3.08c-.3570824-.000366-.6868739-.1911096-.8652566-.5004437s-.1782849-.6903138.0002566-.9995563z" fill="#428dff"/><path id="Shape" d="m37 50.873-.4 3.127h-2.6c-.5522847 0-1 .4477153-1 1s.4477153 1 1 1h3.48c.503938.0004887.929504-.374078.993-.874l.51-4c.0571124-.3600205-.0862007-.7225981-.3740276-.9462771-.2878268-.2236791-.6745651-.2730209-1.0093334-.1287753s-.5645273.4592249-.599639.8220524z" fill="#428dff"/></g></g></g></svg>