<?xml version="1.0" encoding="iso-8859-1"?>
<!-- Generator: Adobe Illustrator 19.0.0, SVG Export Plug-In . SVG Version: 6.00 Build 0)  -->
<svg version="1.1" id="Capa_1" xmlns="http://www.w3.org/2000/svg" xmlns:xlink="http://www.w3.org/1999/xlink" x="0px" y="0px"
	 viewBox="0 0 512 512" style="enable-background:new 0 0 512 512;" xml:space="preserve">
<circle style="fill:#35CCFF;" cx="256" cy="256" r="256"/>
<path style="fill:#00BAFF;" d="M389.549,179.82L79.928,310.732l200.133,200.134c115.893-10.806,209.343-98.854,228.373-212.162
	L389.549,179.82z"/>
<path style="fill:#FFFFFF;" d="M324.83,331.968c49.619,0,89.843-40.224,89.843-89.843c0-46.458-35.264-84.676-80.484-89.357
	c-15.541-36.412-51.665-61.937-93.757-61.937c-53.245,0-96.926,40.844-101.482,92.906c-2.315-0.217-4.658-0.34-7.03-0.34
	c-41.027,0-74.286,33.259-74.286,74.286s33.259,74.286,74.286,74.286h192.91V331.968z"/>
<path style="fill:#E0E0E0;" d="M334.189,152.768c-15.541-36.413-51.665-61.937-93.757-61.937c-0.479,0-0.955,0.011-1.432,0.017
	v241.12h85.83c49.619,0,89.843-40.224,89.843-89.843C414.673,195.667,379.409,157.449,334.189,152.768z"/>
<rect x="207.41" y="224.27" style="fill:#333333;" width="216.78" height="54.988"/>
<rect x="314.33" y="224.27" style="fill:#1A1A1A;" width="109.85" height="54.988"/>
<rect x="385.59" y="241.72" style="fill:#8CC63F;" width="20.09" height="20.09"/>
<rect x="357.7" y="241.72" style="fill:#FFDC00;" width="20.09" height="20.09"/>
<rect x="207.41" y="290.29" style="fill:#333333;" width="216.78" height="54.988"/>
<rect x="314.33" y="290.29" style="fill:#1A1A1A;" width="109.85" height="54.988"/>
<rect x="385.59" y="307.74" style="fill:#8CC63F;" width="20.09" height="20.09"/>
<rect x="357.7" y="307.74" style="fill:#FFDC00;" width="20.09" height="20.09"/>
<rect x="207.41" y="356.32" style="fill:#333333;" width="216.78" height="54.988"/>
<rect x="314.33" y="356.32" style="fill:#1A1A1A;" width="109.85" height="54.988"/>
<rect x="385.59" y="373.77" style="fill:#8CC63F;" width="20.09" height="20.09"/>
<rect x="357.7" y="373.77" style="fill:#FFDC00;" width="20.09" height="20.09"/>
<g>
</g>
<g>
</g>
<g>
</g>
<g>
</g>
<g>
</g>
<g>
</g>
<g>
</g>
<g>
</g>
<g>
</g>
<g>
</g>
<g>
</g>
<g>
</g>
<g>
</g>
<g>
</g>
<g>
</g>
</svg>
