<svg height="511pt" viewBox="0 0 511.99972 511" width="511pt" xmlns="http://www.w3.org/2000/svg"><path d="m510.660156 255.832031c0 53.429688-16.414062 103.039063-44.476562 144.035157-19.832032 28.984374-45.480469 53.664062-75.265625 72.359374-39.289063 24.667969-85.769531 38.933594-135.585938 38.933594-141.015625 0-255.332031-114.3125-255.332031-255.328125s114.316406-255.332031 255.332031-255.332031 255.328125 114.316406 255.328125 255.332031zm0 0" fill="#884389"/><path d="m123.632812 292.21875c-21.351562-21.351562-49.746093 10.433594-49.746093 10.433594s-28.398438-31.785156-49.75-10.433594c-24.0703128 24.074219 15.246093 77.835938 49.75 88.265625 34.5-10.429687 73.820312-64.191406 49.746093-88.265625zm0 0" fill="#dd2339"/><path d="m466.183594 399.867188c-19.832032 28.984374-45.480469 53.664062-75.265625 72.359374-26.148438-20.199218-46.179688-57.257812-27.328125-76.109374 21.355468-21.355469 49.742187 10.433593 49.742187 10.433593s28.402344-31.789062 49.753907-10.433593c1.179687 1.175781 2.210937 2.4375 3.097656 3.75zm0 0" fill="#f74570"/><path d="m122.496094 50.945312c-15.835938-15.835937-36.898438 7.738282-36.898438 7.738282s-21.058594-23.574219-36.894531-7.738282c-17.851563 17.851563 11.308594 57.722657 36.894531 65.460938 25.589844-7.738281 54.75-47.609375 36.898438-65.460938zm0 0" fill="#f74570"/><path d="m506.5 159.933594c-15.835938-15.835938-36.894531 7.738281-36.894531 7.738281s-21.058594-23.574219-36.894531-7.738281c-17.851563 17.851562 11.308593 57.722656 36.894531 65.460937 25.589843-7.738281 54.75-47.609375 36.894531-65.460937zm0 0" fill="#dd2339"/><path d="m360.890625 265.191406c15.269531 15.269532 32.007813 58.660156-4.46875 84.714844s8.335937 88.585938 8.335937 88.585938l-92.753906 37.515624-117.761718-66.695312 20.425781-176.660156" fill="#ffb93b"/><path d="m381.121094 448.902344v29.171875c-14.996094 8.492187-30.933594 15.539062-47.628906 20.882812-1.730469.5625-3.457032 1.09375-5.210938 1.617188-6.492188 1.9375-13.097656 3.625-19.800781 5.03125-2.9375.625-5.886719 1.199219-8.859375 1.710937-14.390625 2.53125-29.1875 3.84375-44.289063 3.84375-15.101562 0-29.902343-1.3125-44.292969-3.832031-2.96875-.511719-5.917968-1.085937-8.859374-1.710937-7.785157-1.644532-15.421876-3.648438-22.925782-5.980469-.417968-.136719-.835937-.261719-1.25-.398438-.28125-.082031-.554687-.175781-.835937-.269531-16.683594-5.347656-32.628907-12.390625-47.625-20.894531v-29.171875c0-35.195313 19.152343-65.917969 47.625-82.289063 7.722656-4.449219 16.121093-7.835937 25.011719-9.964843 4.699218-1.132813 9.535156-1.914063 14.488281-2.3125 2.5625-.207032 5.148437-.3125 7.761719-.3125h61.792968c7.304688 0 14.410156.8125 21.238282 2.375.34375.085937.6875.15625 1.019531.242187 8.890625 2.136719 17.289062 5.523437 25.011719 9.972656 28.460937 16.382813 47.628906 47.105469 47.628906 82.289063zm0 0" fill="#eaaf8c"/><path d="m381.121094 448.902344v29.171875c-35.328125 20.050781-75.921875 31.910156-119.191406 33.003906-2.199219.050781-4.390626.082031-6.597657.082031-2.210937 0-4.410156-.03125-6.597656-.09375-24.605469-.613281-48.335937-4.71875-70.730469-11.828125v-50.335937c0-52.398438 42.488282-94.878906 94.898438-94.878906h13.320312c52.417969 0 94.898438 42.480468 94.898438 94.878906zm0 0" fill="#f6c7a5"/><path d="m289.179688 317.472656v41.546875c0 15.207031-10.027344 28.066407-23.84375 32.335938-3.160157.980469-6.53125 1.511719-10.015626 1.511719-18.695312 0-33.847656-15.152344-33.847656-33.847657v-41.546875zm0 0" fill="#eaaf8c"/><path d="m289.179688 356.386719v2.632812c0 15.207031-10.027344 28.066407-23.84375 32.335938-12.460938-3.832031-21.832032-14.667969-23.5625-27.929688 2.261718.140625 4.535156.207031 6.820312.207031 6.402344 0 12.683594-.507812 18.796875-1.511718 7.539063-1.210938 14.820313-3.148438 21.789063-5.734375zm0 0" fill="#f6c7a5"/><path d="m160.929688 249.382812c0 15.671876-11.445313 28.664063-26.4375 31.078126-1.640626.265624-3.324219.402343-5.042969.402343-17.390625 0-31.484375-14.089843-31.484375-31.480469 0-17.394531 14.09375-31.484374 31.484375-31.484374 1.71875 0 3.402343.140624 5.042969.40625 14.988281 2.410156 26.4375 15.40625 26.4375 31.078124zm0 0" fill="#f6c7a5"/><path d="m160.929688 249.382812c0 15.671876-11.445313 28.664063-26.4375 31.078126-2.722657-9.902344-4.179688-20.324219-4.179688-31.078126 0-10.757812 1.453125-21.179687 4.179688-31.078124 14.988281 2.410156 26.4375 15.40625 26.4375 31.078124zm0 0" fill="#eaaf8c"/><path d="m140.699219 249.382812c0 6.214844-5.035157 11.25-11.25 11.25-6.214844 0-11.253907-5.035156-11.253907-11.25 0-6.214843 5.039063-11.253906 11.253907-11.253906 6.214843 0 11.25 5.039063 11.25 11.253906zm0 0" fill="#eaaf8c"/><path d="m349.722656 249.382812c0 15.671876 11.445313 28.664063 26.4375 31.078126 1.640625.265624 3.324219.402343 5.042969.402343 17.390625 0 31.484375-14.089843 31.484375-31.480469 0-17.394531-14.09375-31.484374-31.484375-31.484374-1.71875 0-3.402344.140624-5.042969.40625-14.992187 2.410156-26.4375 15.40625-26.4375 31.078124zm0 0" fill="#f6c7a5"/><g fill="#eaaf8c"><path d="m349.722656 249.382812c0 15.671876 11.445313 28.664063 26.4375 31.078126 2.722656-9.902344 4.179688-20.324219 4.179688-31.078126 0-10.757812-1.453125-21.179687-4.179688-31.078124-14.992187 2.410156-26.4375 15.40625-26.4375 31.078124zm0 0"/><path d="m392.457031 249.382812c0 6.214844-5.039062 11.25-11.253906 11.25s-11.25-5.035156-11.25-11.25c0-6.214843 5.035156-11.253906 11.25-11.253906s11.253906 5.039063 11.253906 11.253906zm0 0"/><path d="m372.460938 188.046875v44.605469c0 58.289062-42.582032 106.644531-98.339844 115.617187-.1875.03125-.386719.0625-.574219.09375-5.929687.949219-12.015625 1.417969-18.226563 1.417969-64.6875 0-117.128906-52.441406-117.128906-117.128906v-44.605469c0-13.621094 2.324219-26.710937 6.617188-38.871094 16.019531-45.585937 59.457031-78.265625 110.511718-78.265625h.011719c6.199219 0 12.296875.476563 18.238281 1.414063 56.027344 8.757812 98.890626 57.238281 98.890626 115.722656zm0 0"/></g><path d="m372.460938 188.046875v44.605469c0 58.289062-42.582032 106.644531-98.339844 115.617187-.1875.03125-.386719.0625-.574219.09375-56.027344-8.753906-98.878906-57.234375-98.878906-115.710937v-44.605469c0-58.484375 42.863281-106.964844 98.902343-115.722656 56.027344 8.757812 98.890626 57.238281 98.890626 115.722656zm0 0" fill="#f6c7a5"/><path d="m335.050781 263.40625c0 8.058594-6.53125 14.589844-14.589843 14.589844-8.058594 0-14.589844-6.53125-14.589844-14.589844s6.53125-14.589844 14.589844-14.589844c8.058593 0 14.589843 6.53125 14.589843 14.589844zm0 0" fill="#f4b3a5"/><path d="m204.78125 263.40625c0 8.058594-6.53125 14.589844-14.589844 14.589844s-14.589844-6.53125-14.589844-14.589844 6.53125-14.589844 14.589844-14.589844 14.589844 6.53125 14.589844 14.589844zm0 0" fill="#f4b3a5"/><path d="m318.226562 233.183594h-3.316406c-3.480468-5.179688-9.410156-8.585938-16.132812-8.585938-6.71875 0-12.648438 3.40625-16.140625 8.585938h-3.316407c0-10.742188 8.714844-19.457032 19.457032-19.457032 10.746094 0 19.449218 8.714844 19.449218 19.457032zm0 0" fill="#151a1c"/><path d="m231.339844 233.183594h-3.3125c-3.492188-5.179688-9.421875-8.585938-16.144532-8.585938-6.722656 0-12.652343 3.40625-16.132812 8.585938h-3.3125c0-10.742188 8.699219-19.457032 19.445312-19.457032 10.746094 0 19.457032 8.714844 19.457032 19.457032zm0 0" fill="#151a1c"/><path d="m268.617188 264.5h-26.574219c-3.167969 0-5.734375-2.566406-5.734375-5.734375 0-3.164063 2.566406-5.730469 5.734375-5.730469h26.574219c3.167968 0 5.730468 2.566406 5.730468 5.730469s-2.5625 5.734375-5.730468 5.734375zm0 0" fill="#eaaf8c"/><path d="m255.332031 300.761719c-9.808593 0-19.617187-2.457031-28.558593-7.371094-2.523438-1.386719-3.441407-4.554687-2.054688-7.078125 1.386719-2.519531 4.554688-3.441406 7.074219-2.054688 14.738281 8.101563 32.335937 8.101563 47.074219 0 2.519531-1.386718 5.6875-.464843 7.078124 2.054688 1.386719 2.523438.464844 5.691406-2.058593 7.078125-8.941407 4.914063-18.746094 7.371094-28.554688 7.371094zm0 0" fill="#f74570"/><path d="m334.273438 477.050781v21.65625c-24.855469 8.089844-51.386719 12.453125-78.941407 12.453125-26.960937 0-52.933593-4.175781-77.328125-11.921875-.542968-.164062-1.074218-.34375-1.617187-.519531v-21.667969c0-23.3125 18.894531-42.207031 42.207031-42.207031 15.757812 0 29.484375 8.640625 36.738281 21.4375 7.253907-12.796875 20.976563-21.4375 36.734375-21.4375 23.3125 0 42.207032 18.894531 42.207032 42.207031zm0 0" fill="#d1e6f2"/><path d="m376.160156 218.300781c-50.085937 0-61.15625-87.5625-61.15625-87.5625 0 20.84375-27.582031 40.382813-55.777344 44.601563-42.324218 6.335937-75.839843 39.597656-80.160156 82.171875-1.988281 19.609375-.191406 40.078125 8.683594 59.046875 22.972656 49.113281 24.007812 152.882812-2.566406 184.847656-39.113282-11.152344-74.390625-31.390625-103.40625-58.300781 6.378906-41.496094 29.828125-96.480469 16.1875-193.726563-19.800782-141.171875 67.738281-186.070312 139.648437-195.449218 71.910157-9.378907 87.542969 40.644531 87.542969 40.644531 60.445312-14.589844 72.953125 123.726562 51.003906 123.726562zm0 0" fill="#ffe96e"/><path d="m156.324219 249.378906c18.699219 133.261719-32.265625 187.164063-13.484375 235.738282-22.398438-11.015626-42.949219-25.210938-61.0625-42.007813 6.378906-41.5 29.828125-96.484375 16.1875-193.730469-19.800782-141.171875 67.738281-186.066406 139.648437-195.445312 17.894531-2.335938 32.308594-.992188 43.867188 2.351562-68.566407 13.414063-143.644531 61.300782-125.15625 193.09375zm0 0" fill="#ffb93b"/><path d="m402.359375 278.484375c0 4.941406-4.007813 8.949219-8.949219 8.949219-4.945312 0-8.953125-4.007813-8.953125-8.949219 0-4.945313 4.007813-8.953125 8.953125-8.953125 4.941406 0 8.949219 4.007812 8.949219 8.953125zm0 0" fill="#f74570"/><path d="m466.164062 43.636719c-27.105468-27.105469-63.152343 13.242187-63.152343 13.242187s-36.046875-40.347656-63.152344-13.242187c-30.558594 30.558593 19.351563 98.800781 63.152344 112.042969 43.796875-13.242188 93.710937-81.484376 63.152343-112.042969zm0 0" fill="#f74570"/></svg>