<svg enable-background="new 0 0 140 140" height="512" viewBox="0 0 140 140" width="512" xmlns="http://www.w3.org/2000/svg"><circle cx="70" cy="70" fill="#fed35b" r="64"/><path d="m132.7971191 82.3531876-.4823608-.4824219c-.4899902-.579834-1.0199585-1.1398926-1.5999756-1.6499023-.0800171-.0698242-.1699829-.1298828-.25-.1999512l-49.1000366-49.1000958c-.4899902-.579834-1.0199585-1.1398926-1.5999756-1.6499023-4.8599854-4.2600098-12.5899658-4.5600586-18.049984-1.1000977-3.4700317 2.1999512-6 5.6501446-7.75 9.3601055-1.7600098 3.7099609-2.789978 7.7199707-3.8200073 11.6999512-1.9199829 7.4699707-3.8499756 14.9399414-5.7800293 22.4099121l1.5100098 1.5102539c-.9400024 1.449707-1.8899536 2.8898926-2.8299561 4.329834l1.1900024 1.1899414c-.1000366.2900391-.2000122.5900879-.3099976.880127l2.0099487 2.0100098c-.1300049.8898926-.2699585 1.7800293-.3999634 2.6699219l2.4799805 2.4799805v.5300293c-.0299683 3.0200195-.6699829 6.1098633.2299805 8.9899902.5 1.5900879 1.2700195 3.0900879 2.0300293 4.5800781 1.539978 3.0300293 3.0899658 6.0598145 4.6300049 9.0900879.3200073.6098633.6300049.9199219.7700195 1.3098145l.0499878.9699707 21.4131432 21.4130936c27.8793946-3.095215 50.3483277-24.0910722 55.6591797-51.2407304z" opacity=".1"/><path d="m55.7281227 112.1841583c.965168-3.0004272 1.930336-6.0008621 2.895504-9.0012894.4561768 1.4522552.9123535 2.9045105 1.3685303 4.3567657.1520767-2.8533554.3041496-5.7067108.4562263-8.5600662.0317612-.5958786.1369972-1.306488.678688-1.5567703.6132889-.2833633 1.3391533.3171082 1.4477654.983902.1086121.6668015-.1948662 1.3241806-.4902916 1.9317551 1.2692528-2.0115814.7556-4.6298599.0889053-6.9130554-.6666985-2.2831955-1.4415779-4.7556992-.5841255-6.9743118.2118263-.5480881.6667175-1.1352081 1.2470322-1.0429993.518486.0823822.7883301.652771.9434128 1.154335.8981552 2.9047775.8674622 6.0891037-.0865173 8.9760284.4954071-1.353447.9908066-2.7068939 1.4862137-4.0603409.9445267 3.6798553.7917709 7.6340866-.4338303 11.2301025 1.7370758-1.6325836 2.8660965-3.8978958 3.1238251-6.2677689.2581558-2.373764-.3286285-4.7491455-.9107819-7.0648499-1.0324249-4.1068115-2.0648499-8.2136154-3.0972672-12.3204193 2.166954 1.5381699 3.4836655 4.2041397 3.3880386 6.8598022.9479752-3.831131-1.1000443-7.7517471-3.4885139-10.8936386-2.3884697-3.1418839-5.262558-6.0980225-6.3733826-9.8851433-1.7052879-5.8138123-.9020729-12.7766342 2.8223724-17.5554314.161129 1.7764969.322258 3.55299.483387 5.329483.7296791-2.0218391 1.4593582-4.0436821 2.1890373-6.0655251.1346436 1.1995277.2692909 2.3990517.4039383 3.5985794.376194-1.1882858.7523918-2.3765678 1.128582-3.5648499.5087357 1.2698212 1.0174713 2.5396385 1.5261993 3.8094597.1110687-1.0007019.2221375-2.0014038.3332062-3.0021057.6526871 1.650116 1.3053741 3.3002319 1.9580612 4.9503479.7535858-4.1476173 2.3233795-8.1453133 4.5933075-11.6975021-.214592 3.1935539-.4291763 6.3871117-.6437683 9.5806656 1.2745972-7.9433708 1.0692673-7.6652946 2.6744766-11.2214165 1.2973633 3.7641563 1.5880585 7.870121.8339462 11.7795181.6393356-2.1698074 1.2786636-4.3396187 1.9179993-6.5094299-.0014648 1.5600357-.0029221 3.1200714-.0043869 4.6801071.2213974-.8839455.4427948-1.7678871.6641998-2.6518326.6932983 2.2715492 1.3865967 4.5430946 2.0799026 6.81464.4579239-.5868607.9158478-1.1737175 1.3737793-1.7605782.6762924 3.6461906-.0522537 7.4189224-1.2260361 10.9366379-1.1737823 3.5177116-2.7880936 6.8759575-3.9617462 10.3937187-1.9887085 5.9607086-2.6771317 12.2642136-3.3535614 18.5114136-.5522919 5.1006851-.5122833 10.2511444-1.0214996 15.356308 1.0663681-1.4118576 2.1327438-2.8237152 3.1991119-4.2355652-.220253 1.7923431-.4405136 3.5846863-.6607742 5.3770294.9054871-.3628693 1.8109818-.7257309 2.7164688-1.0886002.7432175 2.5506592 2.2889862 4.8611145 4.3630447 6.5214081-.2971115-1.4169769-.5942154-2.8339539-.8913193-4.2509308 2.8082199 1.6995163 5.1574478 4.149559 6.7375488 7.0266571-.7066422-3.4241333-1.4132843-6.8482742-2.1199265-10.2724152 1.601265 1.5967865 3.2025299 3.193573 4.8037949 4.7903595-.3093796-1.1955032-.6187668-2.3909988-.9281464-3.5865021-.1140976-.4408798-.2146301-.9552078.0653458-1.3143845.3256912-.4178238 1.0153427-.3612747 1.4244156-.0246506.4090652.3366241.6075592.8588562.7891312 1.3565292.3486099-2.8499908-.6665955-5.6651382-1.5245743-8.4051819-.8579712-2.7400513-1.5685196-5.7240601-.6357651-8.4395676 1.9788971 1.2882462 3.3301926 3.4971085 3.5760651 5.8455505.2192459-2.7599335.096138-5.5468826-.3656006-8.2767334.9895554 1.2905655 2.6223755 2.0611038 4.2476654 2.0044861-2.5398483-1.8228989-3.9957275-5.0531693-3.6792374-8.163414.6280212.8672867 1.2560501 1.734581 1.8840714 2.6018677-.9189911-4.0122375-1.8379822-8.0244751-2.7569809-12.0367126-1.9348068-8.4471817-3.4340668-17.0860062-5.4140854-25.5227089-1.3239822-5.6413956-2.8695526-11.6646118-7.2258148-15.4857655-4.8580322-4.2612762-12.5875015-4.5564747-18.0465088-1.0984154-3.4692879 2.1976547-6.0030823 5.646204-7.7552795 9.3604259-1.7521935 3.7142258-2.7873459 7.7183914-3.8127251 11.6951065-1.9266701 7.472187-3.8533363 14.9443703-5.7800064 22.4165611.9005356-.1032791 1.801075-.2065506 2.7016144-.3098297-1.3419762 2.0495224-2.6839485 4.0990448-4.0259247 6.1485672.5681076-.0873489 1.1362152-.1746902 1.704319-.2620392-.2740555.7765808-.548111 1.5531616-.8221626 2.3297424.7189865.5001144 1.8167572.335701 2.3576775-.3531113-.2507324 1.6781921-.5014648 3.3563919-.7521973 5.034584.8447266-.8427353 1.6894493-1.6854782 2.5341759-2.5282135-.0184402 1.84478-.0368805 3.6895523-.0553169 5.5343323-.0301819 3.0192719-.6636124 6.1093445.2367325 8.9914093.4985199 1.5957794 1.2624168 3.0936127 2.0226593 4.5825958 1.5463181 3.0285568 3.0926361 6.057106 4.6389542 9.0856628.5124132 1.0035944 1.004944 1.1762781.8187219 2.2876215z" fill="#293b44"/><path d="m89.545311 75.4777985c-.5529785-2.7983398-1.105957-5.5966797-1.6589966-8.3950195-.4526367 7.470459-.9053345 14.940918-1.3579712 22.411377-.3887939-.9968262-.5044556-2.0759277-.6165771-3.1398926-.366272-3.4760742-.732605-6.9519043-1.098877-10.4277344-1.1410522 3.4494629-1.3043213 7.2165527-.4660645 10.7519531-.9696655-3.1289062-1.9393311-6.2575684-2.9090576-9.3862305-1.9203491 3.5180664-3.0473022 7.4665527-3.2734375 11.4682617-.5673218-3.7878418-1.0894165-7.8728027.6818848-11.2685547.6911011-1.3251953 1.6931763-2.4560547 2.6146851-3.6325684 2.2085571-2.8190918 3.9959717-5.9677734 5.284668-9.3093262 1.4915771-3.8674316 1.647522-8.2526855.0767822-12.088623-.9511719-2.3225098-2.7526245-4.2207031-3.6924438-6.5480957-.7480469-1.8525391-.9207153-3.9077148-1.7584229-5.7214355-.7944946-1.7202148-2.18573-3.157959-3.8790283-4.0085449.5490723 1.0292969 1.0981445 2.059082 1.6472778 3.088623-1.3135376-1.5358887-2.6269531-3.0715332-3.9404297-4.6074219.703186-.5700684 1.1092529-.9748535 1.7421265-1.831543-3.1433716-.2858887-6.390625 1.1181641-8.3352661 3.604248.2644653-.6542969.5289917-1.3085938.793457-1.9628906-2.0047607 1.0825195-3.6447754 2.8271484-4.6014404 4.8947754.088623-.9692383.1773071-1.9382324.2659912-2.9074707-1.1110229 1.46875-2.2220459 2.9377441-3.3330688 4.4064941.0881348-1.1347656.1762085-2.2692871.2643433-3.4040527-4.5853882 4.2578125-4.3632202 11.4858398-7.5968018 16.8432617-1.6306152 2.701416-2.6314087 5.7805176-2.9006958 8.9245605-.1326904 1.5488281-.0942993 3.1330566-.5484009 4.619873-.3829956 1.2539062-1.0985718 2.3764648-1.6251221 3.5771484-.5265503 1.2009277-.8623657 2.5756836-.4395142 3.8168945.7862549-1.7521973 1.5725098-3.5043945 2.3587646-5.2563477-.241272 3.8564453-.4825439 7.7131348-.7238159 11.5698242.5183716-1.1437988 1.0367432-2.2875977 1.5551147-3.4311523.0828857 4.3962402.1657715 8.7924805.2485962 13.1887207.0723267-2.1491699.1446533-4.298584.2169189-6.447998.5463257 2.5285645 1.0925903 5.0571289 1.638916 7.5856934.1622925-2.2927246.3245239-4.5852051.4868164-6.8779297 1.2924805 4.213623 2.5849609 8.4272461 3.8774414 12.6408691-.0758667-2.8293457-.1516724-5.6584473-.2275391-8.4875488.6791992 1.6032715 1.3583984 3.2067871 2.0375366 4.8103027-.3440552-2.9951172-.6881104-5.9899902-1.0321655-8.9848633-.3128052-2.7231445-.7960205-5.2084961-1.1088257-7.9316406.3130493 1.0063477 1.4979858 1.6474609 2.5115967 1.3588867-2.8375854-4.7084961-5.762207-9.7075195-5.8477783-15.2043457-.0864868-5.5615234 2.74646-10.6984863 5.4976196-15.5324707.8883667-1.5610352 1.7767334-3.1218262 2.6650391-4.6828613-.0570068 2.0126953-.1140747 4.0253906-.1710815 6.0378418.2377319-1.7019043.8918457-3.3442383 1.8893433-4.7436523.1312866.6943359.2625732 1.388916.3938599 2.0834961.413269-1.4187012.8265381-2.8371582 1.2398682-4.2558594.2575073 1.2905273.5150146 2.5808105.772583 3.8713379.4869995-1.4182129.973999-2.8361816 1.4610596-4.2541504.2008057 1.4746094.4016113 2.9489746.602478 4.4233398-.0421143-1.8361816.3065796-3.6650391.954834-5.3825684.0396118.2023926.0896606.4030762.154541.5996094.3114624-.5969238.6228638-1.1940918.9343262-1.7912598-.0877075 1.4162598-.0524902 2.8400879.1052856 4.2502441.2935181-.7297363.701355-1.4072266 1.1072998-2.0808105.4884644-.810791.9769287-1.6213379 1.4653931-2.4321289.0100708.5356445.0201416 1.0712891.0301514 1.6069336.5413818-1.1955566 1.2080078-2.3432617 1.9911499-3.3981934-.0953979.8771973.1862793 1.802002.8167725 2.4245605.6171265.609375 1.5408936.9938965 1.8049316 1.8200684.1356812.4245605.0621338.8828125.0269165 1.3271484-.0352173.4440918-.0183105.9291992.2574463 1.2792969s.8959351.442627 1.1450806.072998c.6317749 1.5922852 1.2635498 3.1845703 1.8953247 4.7768555.1613159.4067383.3226318.8132324.4863892 1.21875.480835 1.1906738.9848022 2.3789062 1.2883301 3.626709 1.0938721 4.4973145-.5101929 9.1628418-2.0923462 13.5124512-1.1121826 3.0576172-2.2244263 6.1154785-3.3366699 9.1730957-.8701782 2.392334-2.3190308 4.2631836-2.6870117 6.7819824-.9025879 6.1779785-.8121948 12.5.2667236 18.6496582.5393066-.7224121 1.0785522-1.4450684 1.6178589-2.1672363 1.312561 2.203125 2.6251831 4.4067383 3.9377441 6.6101074-.102356-2.020752-.2047119-4.0415039-.3070679-6.0622559 1.1612549 1.5019531 2.3224487 3.0041504 3.4837036 4.5061035-1.2683716-5.467041-2.5366821-10.9343262-3.8050537-16.4016113 2.5316772 5.1347656 5.0633545 10.2695312 7.5950317 15.4042969.1696777-6.848877.3393555-13.6977539.5089722-20.5463867 1.3318481 1.1403809 2.2174683 2.7890625 2.4332886 4.5290527-.0400392-4.4309078-.9022828-8.8081051-1.7612916-13.1550289zm-14.6467285-40.5024414c-.0172119-.0095215-.0333862-.0212402-.0509033-.0300293.0145874-.0114746.0296631-.0234375.0447998-.0354004-.0006104.0229492.0054931.0429687.0061035.0654297z" fill="#467082" opacity=".25"/></svg>