<svg id="Layer_1" enable-background="new 0 0 512.145 512.145" height="512" viewBox="0 0 512.145 512.145" width="512" xmlns="http://www.w3.org/2000/svg"><path d="m496.145 192.072c0 35.851-14.869 69.707-37.227 100.363-2.055-.048 8.039-8.533-124.309 110.976-43.36 28.277-78.464 44.661-78.464 44.661-52.224-24.381-111.08-66.679-113.536-69.12-60.492-45.102-126.464-111.397-126.464-186.88 0-49.901 28.773-94.303 72.523-115.392l115.381 2.251c21.931 11.637 40.064 29.461 52.096 51.147 41.678-75.13 142.882-88.164 202.507-28.512 23.221 23.21 37.493 55.234 37.493 90.506z" fill="#ea8692"/><path d="m460.702 103.662c36.866 38.567 40.291 104.226-10.232 149.242-34.464 30.699-106.261 95.04-106.261 95.04-43.36 28.277-78.464 44.661-78.464 44.661-60.697-28.336-175.327-100.08-219.888-182.593-25.569-47.345-8.54-108.578 42.811-133.332l115.381 2.251c21.931 11.637 40.064 29.461 52.096 51.147 42.149-75.98 145.235-88.474 204.557-26.416z" fill="#fe929f"/><path d="m170.812 421.054c0 51.2-85.333 91.019-85.333 91.019s-21.333-9.952-42.667-26.304c-28.595-21.932-54.077-53.68-37.632-85.536 16.635-32.307 62.636-33.058 80.299-1.227 14.803-26.678 50.759-31.375 72-10.133 8.456 8.456 13.333 19.91 13.333 32.181z" fill="#fe929f"/><path d="m157.578 388.972c5.925 5.961 6.641 15.365 1.94 22.332-34.61 51.3-110.083 52.269-146.138 2.767-6.503-8.929-4.873-21.529 3.724-28.465 21.714-17.519 54.495-11.614 68.374 13.399 14.863-26.784 50.923-31.339 72.1-10.033z" fill="#ffa4b8"/><path d="m204.049 78.931c-22.091 24.448-56.704 40.608-56.704 40.608-40.006-18.677-91.575-60.589-69.451-99.36 15.393-26.956 54.368-26.755 69.451.427 12.955-23.348 44.409-27.447 63.008-8.875 15.008 15.072 18.125 40.18-6.304 67.2z" fill="#ea8692"/><path d="m210.428 11.806c4.459 4.501 4.964 11.596 1.383 16.823-7.15 10.437-17.188 19.729-27.271 27.454-21.813 16.693-52.107 16.949-73.973.331-7.908-6.046-15.495-12.745-21.899-20.267-8.969-10.486-5.478-26.276 6.408-32.07 18.64-9.086 41.795-2.347 52.269 16.529 13.04-23.502 44.691-27.366 63.083-8.8z" fill="#fe929f"/><path d="m512.145 347.027c0 61.44-102.4 109.227-102.4 109.227s-25.6-11.947-51.2-31.573c-24.818-19.022-51.2-46.478-51.2-77.653 0-30.016 24.302-54.613 54.613-54.613 20.565 0 38.475 11.36 47.787 28.16 9.312-16.8 27.221-28.16 47.787-28.16 30.122-.001 54.613 24.403 54.613 54.612z" fill="#fe929f"/><path d="m496.364 308.623c12.309 12.449 12.637 32.421 1.087 45.577-8.583 9.777-18.68 18.619-28.74 26.267-28.219 21.465-68.848 24.002-101.632-.587-11.824-9.062-23.454-19.611-32.661-31.326-17.657-22.466-1.793-56.141 27.541-56.141 20.565 0 38.475 11.36 47.787 28.16 17.704-31.941 61.061-37.796 86.618-11.95z" fill="#ffa4b8"/></svg>