<svg id="Layer_1" enable-background="new 0 0 512 512" height="512" viewBox="0 0 512 512" width="512" xmlns="http://www.w3.org/2000/svg"><g><path d="m468.503 389.012c20.672-35.926 32.496-77.587 32.496-122.011 0-135.309-109.69-244.999-244.999-244.999s-244.999 109.69-244.999 244.999c0 46.923 13.201 90.759 36.077 128.015z" fill="#ffb332"/><g><path d="m393.911 273.259c-4.239 0-7.675-3.436-7.675-7.675v-25.058c0-4.239 3.436-7.675 7.675-7.675s7.675 3.436 7.675 7.675v25.058c0 4.239-3.437 7.675-7.675 7.675z" fill="#bec9f7"/></g><path d="m423.148 298.998v-28.364c0-2.789-2.261-5.05-5.05-5.05h-48.375c-2.789 0-5.05 2.261-5.05 5.05v28.364z" fill="#dae2fe"/><path d="m423.148 298.998v-28.364c0-2.789-2.261-5.05-5.05-5.05h-48.375c-2.789 0-5.05 2.261-5.05 5.05v28.364z" fill="#dae2fe"/><path d="m391.132 287.83v-11.078c0-6.168 5-11.168 11.168-11.168h-32.577c-2.789 0-5.05 2.261-5.05 5.05v28.364h37.627c-6.168 0-11.168-5-11.168-11.168z" fill="#bec9f7"/><path d="m231.678 350.897c8.127 8.473-7.984 16.703.953 24.913 17.73 15.512 21.819 19.001 22.363 19.614.54-.611 4.742-4.197 22.362-19.614 2.659-2.442 3.461-6.308 1.996-9.607-1.779-4.773-4.14-7.099-3.175-11.316.621-2.786 2.338-4.191 4.228-6.199 11.89-12.684 24.585-28.744 30.527-45.009l.001-.001c2.155-5.896 3.153-10.604 3.556-14.231-3.16-7.042-4.397-20.445-4.662-28.13-15.512 18.068-33.069 29.83-56.863 29.097-21.995-.672-38.376-12.283-52.812-29.097-.242 7.025-1.041 15.549-3.096 23.647-.417 1.641-.993 3.222-1.694 4.741 1.182 11.233 8.011 31.683 36.316 61.192z" fill="#fcad6d"/><path d="m252.964 290.414c-21.995-.672-38.376-12.283-52.812-29.097-.242 7.025-1.041 15.549-3.096 23.647-.417 1.641-.993 3.222-1.694 4.741 1.182 11.232 8.011 31.683 36.316 61.192 8.127 8.473-7.984 16.703.953 24.913.258.226.503.44.755.661 17.055-23.64 23.759-56.557 25.893-86.164-2.056.134-4.159.173-6.315.107z" fill="#fd995b"/><path d="m218.03 509.058c1.665.26 3.338.5 5.014.726l36.367.157v-113.768c0-2.26-.947-4.416-2.611-5.945l-22.131-15.948c-2.553-2.345-3.323-6.057-1.916-9.224l2.579-5.802c1.338-3.008.7-6.518-1.579-8.894-40.5-42.223-36.355-67.423-35.564-70.507l-9.093 8.822-4.787 7.824c-5.608 21.508-5.071 39.869-5.071 57.03v142.146z" fill="#f4e1b0"/><path d="m325.679 296.497-4.787-7.824-9.093-8.822c.792 3.084 4.935 28.285-35.564 70.507-2.279 2.376-2.916 5.886-1.579 8.894l2.579 5.802c1.407 3.167.637 6.88-1.916 9.224l-22.132 15.948c-1.664 1.529-2.611 3.685-2.611 5.945v113.73l36.236.157c1.694-.214 3.384-.439 5.067-.687l38.871-11.885v-143.959c.001-17.161.538-35.522-5.071-57.03z" fill="#f4e1b0"/><g><path d="m236.649 1.143c-55.074 7.504-60.309 38.73-60.333 50.186-.005 2.403-1.336 4.629-3.496 5.68-28.648 13.936-13.202 81.103-13.202 81.103 2.877.192 5.888 1.357 8.134 2.445.55-3.423 1.447-6.792 2.715-10.049.966-2.482 2.174-4.989 3.684-7.358 2.62-4.11 3.813-8.959 3.457-13.806-1.03-14.012-.534-41.623 17.962-49.945 15.669-7.051 34.89-2.968 47.148 1.108 7.96 2.647 16.583 2.647 24.544 0 12.258-4.076 31.479-8.159 47.148-1.108 18.443 8.299 18.989 35.776 17.971 49.825-.354 4.885.807 9.784 3.447 13.925 1.559 2.445 2.796 5.038 3.777 7.598 1.22 3.183 2.087 6.471 2.624 9.81 2.831-1.371 6.877-2.865 10.339-2.376.424-14.687 1.779-30.52 1.779-30.52 16.321-79.935-58.398-114.597-117.698-106.518z" fill="#47477f"/></g><path d="m241.9 60.245c-.163-.292-.316-.584-.489-.875-23.007-38.793 9.481-59.066 9.481-59.066l-.347-.263c-4.691.115-9.339.481-13.896 1.102-55.074 7.504-60.309 38.729-60.333 50.186-.005 2.403-1.336 4.629-3.496 5.68-28.648 13.936-13.202 81.103-13.202 81.103 2.877.192 5.888 1.357 8.134 2.445.55-3.423 1.448-6.792 2.715-10.049.966-2.482 2.174-4.989 3.684-7.358 2.62-4.11 3.813-8.959 3.457-13.806-1.03-14.012-.534-41.623 17.962-49.945 15.332-6.899 34.048-3.138 46.33.846z" fill="#3b3868"/><path d="m359.146 139.848c-4.289-3.931-12.834-1.939-16.528.469.809 5.04.855 10.196.156 15.288l-4.36 31.752c0 2.56-.081 5.071-.229 7.538 10.631 3.206 15.911-6.337 16.801-12.887.383-2.82 1.009-5.599 1.877-8.31 2.829-8.831 13.03-24.001 2.283-33.85z" fill="#fcad6d"/><g><path d="m349.422 172.179c-3.23 0-6.194-1.145-8.506-3.051l-2.503 18.23c0 2.56-.081 5.071-.229 7.538 10.631 3.206 15.911-6.337 16.801-12.887.383-2.82 1.009-5.599 1.877-8.31.539-1.685 1.348-3.601 2.227-5.666-2.435 2.55-5.861 4.146-9.667 4.146z" fill="#fd995b"/></g><path d="m151.61 139.848c4.29-3.931 12.834-1.939 16.528.469-.809 5.04-.855 10.196-.156 15.288l4.36 31.752c0 2.56.081 5.071.229 7.538-10.631 3.206-15.911-6.337-16.801-12.887-.383-2.82-1.009-5.599-1.878-8.31-2.827-8.831-13.029-24.001-2.282-33.85z" fill="#fcad6d"/><g><path d="m169.709 168.182c-2.427 2.465-5.799 3.997-9.532 3.997-2.932 0-5.634-.954-7.839-2.552.611 1.46 1.157 2.83 1.554 4.072.868 2.711 1.495 5.49 1.877 8.31.89 6.55 6.17 16.093 16.801 12.887-.148-2.468-.229-4.979-.229-7.538z" fill="#fd995b"/></g><path d="m171.269 187.597c0 4.648.26 9.114.724 13.416.63 2.085 18.793 60.304 84.049 60.304 65.122 0 81.324-57.977 81.944-60.287.46-4.279.718-8.718.717-13.339l4.36-31.753c1.195-8.708.221-17.504-2.82-25.436-1.083-2.827-2.375-5.425-3.838-7.721-2.502-3.926-3.689-8.723-3.343-13.508 1.107-15.275.191-42.146-18.373-50.5-15.592-7.014-34.514-3.283-47.643 1.083-7.776 2.588-16.341 2.587-24.116 0-13.129-4.367-32.052-8.101-47.643-1.083-7.983 3.592-20.984 14.946-18.364 50.621.346 4.7-.845 9.454-3.351 13.388-1.422 2.23-2.682 4.746-3.745 7.477-3.114 7.999-4.121 16.876-2.914 25.673z" fill="#f9ba8f"/><path d="m171.268 187.597c0 4.648.26 9.114.724 13.415.585 1.938 16.452 52.794 71.638 59.558-12.626-16.072-25.02-40.198-25.02-72.974l-4.354-31.665c-1.208-8.796-.2-17.673 2.914-25.673 1.063-2.731 2.323-5.247 3.745-7.477 2.507-3.933 3.696-8.688 3.351-13.388-2.491-33.914 9.132-45.843 17.145-50.025-13.042-4.143-31.118-7.351-46.123-.597-7.983 3.592-20.984 14.946-18.364 50.621.346 4.7-.845 9.454-3.351 13.388-1.422 2.23-2.682 4.746-3.745 7.477-3.113 7.999-4.121 16.876-2.914 25.673z" fill="#fcad6d"/><path d="m338.006 200.951c-3.437 8.481-11.415 18.686-24.508 24.365-2.417-14.41-12.813-28.839-26.694-31.986l-21.216-6.233c-3.688-1.084-7.381.809-8.866 4.022-.272.588-1.09.588-1.362 0-1.485-3.213-5.178-5.105-8.866-4.022l-21.216 6.233c-14.155 3.21-24.694 18.15-26.835 32.839-14.482-5.461-22.855-16.294-26.47-25.218 7.539 53.394 38.079 78.627 60.287 89.945 14.235 7.255 31.025 7.279 45.264.033 22.212-11.303 52.936-36.532 60.482-89.978zm-58.339 54.608c-9.112 3.219-19.056-2.511-20.223-11.997-.015-.123-.029-.246-.043-.371-.192-1.769-1.672-3.128-3.475-3.128-1.802 0-3.283 1.359-3.475 3.128-.014.125-.028.249-.043.371-1.167 9.485-11.111 15.216-20.223 11.997-12.538-4.43-17.931-12.82-20.249-18.971 6.792-9.291 16.794-15.958 28.306-18.5l3.79-.837c5.523-1.219 9.794-6.611 11.361-12.356.18-.66 1.118-.66 1.297 0 1.566 5.745 5.837 11.137 11.361 12.356l3.79.837c10.892 2.404 20.435 8.5 27.186 17.018-1.398 6.214-5.78 15.655-19.36 20.453z" fill="#47477f"/><path d="m240.334 256.204-.008-.034c-2.618.5-5.415.353-8.141-.611-12.538-4.43-17.931-12.82-20.249-18.971 4.985-6.818 11.701-12.215 19.471-15.613-17.434-5.288-11.475-23.531-10.478-26.245-11.932 4.966-20.57 18.299-22.485 31.439-14.482-5.461-22.855-16.294-26.47-25.218 7.539 53.394 38.079 78.627 60.287 89.945 7.814 3.982 16.397 5.771 24.906 5.39-29.241-13.345-16.833-40.082-16.833-40.082z" fill="#3b3868"/><path d="m235.48 353.098-11.858 12.377 15.098 24.752h32.409l15.237-24.752-11.851-12.377z" fill="#ff4155"/><path d="m265.931 383.381-5.198-8.521c-3.375-5.532-2.603-12.643 1.881-17.322l.035-.036c2.695-2.812 6.421-4.403 10.315-4.403h-37.484l-11.858 12.376 15.098 24.753h32.409l.855-1.39c-2.465-1.175-4.584-3.049-6.053-5.457z" fill="#e80054"/><path d="m320.287 330.015c0-5.599 4.044-10.263 9.362-11.247-1.039-9.597-2.633-17.144-3.969-22.27l-4.576-7.613-9.303-9.032c.048.816 2.41 7.814-3.096 22.876l-.001.001c-6.344 17.372-19.605 34.182-32.467 47.629-1.366 1.424-2.128 3.257-2.242 5.144l28.125 22.668c5.477 4.414 13.662 2.428 16.473-4.02.547-1.254 1.115-2.611 1.695-4.048v-40.088z" fill="#fceec8"/><g><path d="m321.956 324.094c2.009-3.306 5.635-5.526 9.778-5.526h18.02v-7.821l-28.14-21.856c-.305-.236-.742.018-.677.398.621 3.612 2.39 16.118 1.019 34.805z" fill="#c04a27"/></g><path d="m291.851 509.382c9.675-1.419 19.163-3.407 28.436-5.922v-159.717l-.622-.668z" fill="#d85e41"/><path d="m136.754 368.167h.001l3.658.925 9.166-40.569c1.24-5.484 3.756-9.84 7.851-13.543-6.915 4.137-44.39 26.061-77.038 35.353-.388.11-.762.257-1.142.391l12.922 98.432c21.834 19.651 47.217 35.43 75.075 46.262-21.124-64.767-30.217-111.581-32.635-125.276-.104-.587.087-1.156.523-1.561.439-.413 1.031-.563 1.619-.414z" fill="#b2381b"/><path d="m134.61 370.141c-.104-.587.087-1.156.523-1.561.442-.411 1.033-.561 1.621-.412h.001l3.658.925 9.166-40.569c1.24-5.484 3.756-9.84 7.851-13.543-6.915 4.137-44.39 26.061-77.038 35.353-.388.11-.763.257-1.142.391l8.666 66.015c.676-.521 1.091-.781 1.091-.781 39.388-3.832 50.201-15.614 50.201-15.614s.445-.547 1.243-1.532c-3.08-13.699-4.932-23.526-5.841-28.672z" fill="#9b2b15"/><path d="m184.309 296.497 4.576-7.613 9.304-9.032c-.049.816-2.41 7.814 3.096 22.876l.001.001c6.344 17.372 19.605 34.182 32.467 47.629 1.366 1.424 2.128 3.257 2.242 5.144l-28.125 22.668c-5.477 4.414-13.662 2.428-16.473-4.02-3.83-8.788-8.655-22.1-12.103-39.282.397-17.466 3.001-30.65 5.015-38.371z" fill="#fceec8"/><path d="m148.082 328.185c1.466-6.489 4.652-11.613 10.218-15.936l30.074-23.358c.305-.236.743.018.677.398-.813 4.726-3.598 24.669 1.272 53.786l-27.698 31.254-23.445-6.744z" fill="#c04a27"/><path d="m190.323 343.075-26.018 27.962c-1.166 1.254-2.924 1.772-4.584 1.352l-22.592-5.711c-2.303-.583-4.444 1.389-4.032 3.729 2.58 14.611 11.551 60.514 32.284 124.279 16.739 6.668 34.385 11.545 52.705 14.391z" fill="#d85e41"/><path d="m93.522 450.353-13.131-100.021c-4.844 1.501-9.283 4.122-12.871 7.705-10.152 10.134-16.773 22.921-21.06 35.987 12.803 21.076 28.708 40.053 47.062 56.329z" fill="#b2381b"/><path d="m89.006 415.957s-8.826 5.477-12.319 17.967c5.348 5.738 10.964 11.224 16.835 16.429z" fill="#c04a27"/><path d="m223.024 509.784c10.787 1.451 21.791 2.216 32.976 2.216 10.486 0 20.817-.662 30.956-1.94l-15.826-119.833h-32.41z" fill="#ff7186"/><path d="m280.837 463.733c-3.21 4.247-8.212 7.118-14.006 7.371-3.591.157-7.202.236-10.831.236-4.449 0-8.868-.121-13.257-.358-5.662-.306-10.525-3.161-13.661-7.343l-6.058 46.144c10.787 1.452 21.791 2.217 32.976 2.217 10.486 0 20.817-.662 30.956-1.94z" fill="#ff4155"/><path d="m318.752 330.014v173.86c10.631-2.809 20.977-6.315 30.99-10.465v-176.376h-18.008c-7.17 0-12.982 5.812-12.982 12.981z" fill="#bec9f7"/><path d="m469.069 388.004v-57.99c0-7.169-5.811-12.982-12.981-12.982h-18.009v113.882c11.802-13.101 22.209-27.481 30.99-42.91z" fill="#dae2fe"/><path d="m439.602 429.198v-123.323c0-4.359-3.533-7.892-7.892-7.892h-75.599c-4.359 0-7.892 3.534-7.892 7.892v188.157c35.319-14.361 66.527-36.72 91.383-64.834z" fill="#e9efff"/><path d="m388.552 305.875c0-4.359 3.534-7.892 7.892-7.892h-40.333c-4.359 0-7.892 3.534-7.892 7.892v188.158c14.158-5.757 27.641-12.819 40.333-21.001z" fill="#dae2fe"/><g><path d="m412.695 360.19h-37.568c-4.239 0-7.675-3.436-7.675-7.675s3.436-7.675 7.675-7.675h37.568c4.239 0 7.675 3.436 7.675 7.675-.001 4.239-3.437 7.675-7.675 7.675z" fill="#bec9f7"/></g><g><path d="m412.695 386.18h-37.568c-4.239 0-7.675-3.436-7.675-7.675s3.436-7.675 7.675-7.675h37.568c4.239 0 7.675 3.436 7.675 7.675-.001 4.239-3.437 7.675-7.675 7.675z" fill="#bec9f7"/></g><g><path d="m412.695 334.2h-37.568c-4.239 0-7.675-3.436-7.675-7.675s3.436-7.675 7.675-7.675h37.568c4.239 0 7.675 3.436 7.675 7.675-.001 4.239-3.437 7.675-7.675 7.675z" fill="#bec9f7"/></g><g><path d="m412.695 412.17h-37.568c-4.239 0-7.675-3.436-7.675-7.675s3.436-7.675 7.675-7.675h37.568c4.239 0 7.675 3.436 7.675 7.675-.001 4.239-3.437 7.675-7.675 7.675z" fill="#bec9f7"/></g><g><path d="m412.695 438.159h-37.568c-4.239 0-7.675-3.436-7.675-7.675s3.436-7.675 7.675-7.675h37.568c4.239 0 7.675 3.436 7.675 7.675-.001 4.239-3.437 7.675-7.675 7.675z" fill="#bec9f7"/></g><path d="m412.695 448.799h-37.568c-4.239 0-7.675 3.436-7.675 7.675s3.436 7.675 7.675 7.675h26.334c5.677-4.196 11.164-8.633 16.451-13.293-1.37-1.272-3.2-2.057-5.217-2.057z" fill="#bec9f7"/><g fill="#ffdd40"><path d="m11.001 267.001c0 22.432 3.024 44.155 8.672 64.794 38.338-35.985 145.216-53.061 113.806-114.334-25.506-49.756-16.78-120.825-9.928-156.601-67.706 43.594-112.55 119.629-112.55 206.141z"/><path d="m389.94 61.842c6.222 26.848 16.891 83.896 3.971 115.277-17.292 42.003 50.022 29.539 75.158 88.465 8.142 19.088 18.937 29.029 29.812 33.756 1.395-10.582 2.119-21.376 2.119-32.339-.001-85.873-44.191-161.413-111.06-205.159z"/></g></g></svg>