<svg id="Layer_1" enable-background="new 0 0 512 512" height="512" viewBox="0 0 512 512" width="512" xmlns="http://www.w3.org/2000/svg"><g><path d="m460.296 402.253c25.713-38.761 40.704-85.253 40.704-135.253 0-135.31-109.69-245-245-245s-245 109.69-245 245c0 50.002 14.992 96.495 40.707 135.258z" fill="#ffc839"/><g><path d="m240.117.99c-47.699 6.499-52.233 33.543-52.254 43.465-.005 2.081-1.157 4.009-3.028 4.92-24.812 12.07-11.434 70.242-11.434 70.242 2.492.166 5.1 1.175 7.045 2.117.476-2.964 1.254-5.883 2.352-8.703.837-2.15 1.883-4.321 3.191-6.373 2.269-3.56 3.303-7.759 2.994-11.957-.892-12.136-.462-36.049 15.557-43.257 13.571-6.106 30.218-2.57 40.834.96 6.894 2.293 14.363 2.293 21.257 0 10.616-3.53 27.263-7.066 40.834-.96 15.973 7.187 16.446 30.985 15.565 43.153-.307 4.23.699 8.473 2.985 12.06 1.35 2.118 2.421 4.363 3.271 6.581 1.056 2.757 1.808 5.604 2.273 8.496 2.452-1.188 5.956-2.482 8.954-2.058.367-12.72 1.541-26.432 1.541-26.432 14.135-69.231-50.578-99.251-101.937-92.254z" fill="#2d3c6b"/></g><path d="m271.537 1.219c-10.519-1.542-21.232-1.617-31.42-.229-47.699 6.499-52.233 33.543-52.254 43.465-.005 2.081-1.157 4.009-3.028 4.92-24.812 12.07-11.434 70.242-11.434 70.242 2.492.166 5.1 1.175 7.045 2.117.476-2.964 1.254-5.883 2.352-8.703.837-2.15 1.883-4.321 3.19-6.373 2.269-3.56 3.303-7.759 2.994-11.957-.892-12.136-.462-36.049 15.557-43.257 13.571-6.106 30.218-2.57 40.835.96.901.3 1.812.555 2.73.777-21.003-41.059 23.429-51.961 23.433-51.962z" fill="#1e2f59"/><path d="m255.988 305.145 53.718-49.047c-4.498-9.323-5.9-21.303-6.212-30.397-4.797 5.588-9.832 10.261-14.642 13.997-9.373 7.278-20.939 11.232-32.851 11.232s-23.478-3.953-32.851-11.232c-4.811-3.736-9.846-8.41-14.643-13.997-.313 9.095-1.715 21.078-6.215 30.402z" fill="#fcad6d"/><path d="m256.001 250.93c-11.912 0-23.478-3.953-32.851-11.232-4.811-3.736-9.846-8.41-14.643-13.997-.313 9.095-1.715 21.078-6.215 30.402l36.289 33.144c12.461-8.055 16.452-27.103 17.73-38.323-.103 0-.206.006-.31.006z" fill="#fd995b"/><path d="m256 512c85.739 0 161.177-44.052 204.954-110.746-.238-2.974-.463-6.08-.67-9.342-2.588-40.884-17.818-75.249-51.805-87.086l.007-.012-64.592-24.515c-5.86-2.285-11.497-4.247-17.341-5.964l-70.564 28.628-70.541-28.624c-5.993 1.757-11.83 3.77-17.339 5.96l-65.66 24.891.007.005c-33.393 12.221-48.178 46.481-50.738 86.718-.198 3.117-.426 6.232-.669 9.346 43.777 66.691 119.214 110.741 204.951 110.741z" fill="#ff4155"/><path d="m119.773 385.273c0-51.968 76.178-71.817 85.586-77.162 9.408-5.346 9.878-14.355 9.878-14.355s.886-2.713 2.028-6.507l-31.817-12.911c-5.993 1.757-11.83 3.77-17.34 5.96l-65.66 24.891.007.005c-33.393 12.221-48.178 46.481-50.738 86.718-.198 3.117-.426 6.232-.668 9.346 18.032 27.471 41.44 51.096 68.724 69.388 0-25.569 0-58.514 0-85.373z" fill="#e80054"/><path d="m318.169 319.068c0-6.042-4.915-10.958-10.957-10.958-6.043 0-10.958 4.916-10.958 10.958 0 6.043 4.915 10.958 10.958 10.958 6.041 0 10.957-4.915 10.957-10.958z" fill="#e80054"/><circle cx="205.358" cy="319.068" fill="#e80054" r="10.958"/><path d="m249.168 300.194v211.707c2.27.062 4.547.099 6.832.099 2.477 0 4.943-.048 7.402-.121v-211.925l-7.413 3.008z" fill="#cc0053"/><path d="m325.954 256.725c-1.622-4.78-6.913-7.233-11.609-5.382l-47.272 18.628c-6.666 2.627-11.199 9.056-11.074 16.22.001.045.002.091.003.136v23.493l72.231-28.463c3.056-1.22 4.619-4.622 3.554-7.736-2.556-7.231-4.427-12.709-5.833-16.896z" fill="#ff7186"/><path d="m197.657 251.343c-4.696-1.851-9.986.602-11.608 5.382-1.406 4.187-3.278 9.665-5.833 16.896-1.065 3.114.497 6.516 3.554 7.736l72.231 28.463v-23.493c.001-.045.002-.091.003-.136.124-7.164-4.408-13.593-11.074-16.22z" fill="#ff7186"/><path d="m215.236 293.755s3.87-11.848 5.87-20.682c2-8.833 15.543-6.366 15.543-6.366l-38.992-15.365c-4.696-1.851-9.986.602-11.608 5.382-1.406 4.187-3.278 9.665-5.833 16.896-1.065 3.114.497 6.516 3.554 7.736z" fill="#ff4155"/><path d="m329.285 113.238c-.85-2.217-1.921-4.463-3.271-6.581-2.286-3.587-3.292-7.83-2.986-12.06.882-12.168.409-35.966-15.564-43.153-13.57-6.106-30.217-2.571-40.832.959-6.894 2.293-14.366 2.293-21.261 0-10.616-3.53-27.262-7.065-40.832-.959-16.019 7.208-16.449 31.121-15.557 43.257.308 4.198-.725 8.397-2.994 11.957-1.308 2.052-2.354 4.223-3.191 6.373-2.714 6.972-3.505 14.534-2.488 21.938l3.777 27.506c0 39.545 21.109 66.423 39.065 80.367 9.372 7.278 20.939 11.231 32.851 11.231s23.478-3.953 32.851-11.231c17.956-13.944 39.065-40.822 39.065-80.367l3.776-27.5c1.006-7.331.243-14.819-2.409-21.737z" fill="#f9ba8f"/><g><path d="m269.817 242.842c-17.956-13.944-39.065-40.822-39.065-80.367l-3.777-27.506c-1.017-7.404-.225-14.966 2.488-21.938.837-2.15 1.883-4.321 3.191-6.373 2.269-3.56 3.302-7.759 2.994-11.957-.83-11.295-.508-32.785 12.455-41.521-.919-.221-1.831-.477-2.732-.777-10.616-3.53-27.262-7.065-40.833-.959-16.019 7.208-16.449 31.121-15.557 43.257.308 4.198-.725 8.397-2.994 11.957-1.308 2.052-2.354 4.223-3.19 6.373-2.714 6.972-3.505 14.534-2.489 21.938l3.777 27.506c0 39.545 21.109 66.423 39.065 80.367 9.373 7.278 20.939 11.231 32.851 11.231 8.136 0 16.109-1.847 23.333-5.335-3.353-1.618-6.546-3.589-9.517-5.896z" fill="#fcad6d"/></g><path d="m345.873 121.329c-3.715-3.405-11.115-1.679-14.315.406.701 4.365.741 8.831.135 13.241l-3.776 27.5c0 2.217-.07 4.392-.198 6.529 9.207 2.777 13.781-5.489 14.551-11.161.332-2.442.874-4.849 1.626-7.197 2.449-7.65 11.285-20.788 1.977-29.318z" fill="#fcad6d"/><path d="m339.19 144.479c-3.161 0-6.068-1.057-8.415-2.82l-2.858 20.816c0 2.217-.07 4.392-.198 6.529 9.207 2.777 13.781-5.488 14.551-11.161.332-2.442.874-4.849 1.626-7.197.799-2.496 2.278-5.579 3.585-8.893-2.326 1.706-5.186 2.726-8.291 2.726z" fill="#fd995b"/><path d="m166.129 121.329c3.715-3.405 11.115-1.679 14.315.406-.701 4.365-.741 8.831-.135 13.241l3.776 27.5c0 2.217.07 4.392.198 6.529-9.207 2.777-13.781-5.489-14.551-11.161-.332-2.442-.874-4.849-1.626-7.197-2.449-7.65-11.285-20.788-1.977-29.318z" fill="#fcad6d"/><path d="m181.285 142.08c-2.242 1.515-4.944 2.399-7.853 2.399-3.517 0-6.724-1.302-9.187-3.438 1.369 3.585 3.005 6.931 3.861 9.605.752 2.349 1.294 4.755 1.626 7.197.771 5.673 5.344 13.938 14.551 11.161-.128-2.137-.198-4.312-.198-6.529z" fill="#fd995b"/><g fill="#e80054"><path d="m318.169 390.866c0-6.043-4.915-10.958-10.957-10.958-6.043 0-10.958 4.915-10.958 10.958 0 6.042 4.915 10.958 10.958 10.958 6.041 0 10.957-4.916 10.957-10.958z"/><path d="m318.169 462.663c0-6.043-4.915-10.958-10.957-10.958-6.043 0-10.958 4.915-10.958 10.958s4.915 10.958 10.958 10.958c6.041 0 10.957-4.915 10.957-10.958z"/><circle cx="205.358" cy="390.866" r="10.958"/><circle cx="205.358" cy="462.663" r="10.958"/></g><path d="m302.324 314.181h-92.079c-2.699 0-4.887 2.188-4.887 4.887 0 2.699 2.188 4.887 4.887 4.887h92.079c2.699 0 4.887-2.188 4.887-4.887 0-2.699-2.188-4.887-4.887-4.887z" fill="#ffdd40"/><path d="m302.324 385.273h-92.079c-2.699 0-4.887 2.188-4.887 4.887 0 2.699 2.188 4.887 4.887 4.887h92.079c2.699 0 4.887-2.188 4.887-4.887 0-2.699-2.188-4.887-4.887-4.887z" fill="#ffdd40"/><path d="m302.324 457.776h-92.079c-2.699 0-4.887 2.188-4.887 4.887 0 2.699 2.188 4.887 4.887 4.887h92.079c2.699 0 4.887-2.188 4.887-4.887 0-2.699-2.188-4.887-4.887-4.887z" fill="#ffdd40"/><path d="m256.285 332.992c-7.658 0-13.923-6.265-13.923-13.923 0-7.658 6.265-13.923 13.923-13.923 7.658 0 13.923 6.265 13.923 13.923 0 7.657-6.265 13.923-13.923 13.923z" fill="#e80054"/><path d="m256.285 404.789c-7.658 0-13.923-6.265-13.923-13.923 0-7.658 6.265-13.923 13.923-13.923 7.658 0 13.923 6.265 13.923 13.923 0 7.658-6.265 13.923-13.923 13.923z" fill="#e80054"/><path d="m256.285 476.586c-7.658 0-13.923-6.266-13.923-13.923 0-7.658 6.265-13.923 13.923-13.923 7.658 0 13.923 6.265 13.923 13.923 0 7.658-6.265 13.923-13.923 13.923z" fill="#e80054"/><path d="m423.777 445.509c-3.902-21.037-10.434-43.721-21.23-55.034-2.447-2.564-6.774-.825-6.774 2.72v75.029c9.891-6.884 19.249-14.482 28.004-22.715z" fill="#e80054"/><path d="m389.366 61.462c7.936 25.858 15.259 74.133-16.593 123.176-46.819 72.087 79 64.633 107 109.118 6.131 9.741 10.595 21.212 13.828 33.188 4.827-19.184 7.399-39.263 7.399-59.944 0-86.12-44.442-161.85-111.634-205.538z" fill="#ffdd40"/><path d="m122.634 61.462c-7.937 25.858-15.259 74.133 16.593 123.176 46.819 72.087-79 64.633-107 109.118-6.131 9.741-10.595 21.212-13.828 33.188-4.828-19.184-7.399-39.263-7.399-59.944 0-86.12 44.442-161.85 111.634-205.538z" fill="#ffdd40"/></g></svg>