<svg enable-background="new 0 0 140 140" height="512" viewBox="0 0 140 140" width="512" xmlns="http://www.w3.org/2000/svg"><circle cx="70" cy="70" fill="#fed35b" r="64"/><path d="m91.2698822 26.2469807c-4.3599854-2.079834-10.1199951-3.6599121-17.5999756-4.0500488-21.4099769-1.1298829-32.7999916 8.460205-37.6500282 18.0400371-4.8499737 9.5800781-2.25 26.380127 2.8200073 32.3400879 5.0700073 5.9499512 3.9500122 15.6799316 3.9500122 15.6799316l43.6123695 43.6123047c27.397522-7.244873 47.5977173-32.1943359 47.5977173-61.8693848 0-1.0778809-.0285645-2.1491699-.0812378-3.2141113l-33.4588623-33.4587402c-1.8699951-2.41992-4.829956-4.9999981-9.1900024-7.0800762z" opacity=".1"/><path d="m71.4270706 113.0291214-12.3789291-8.6652451s-.4951591-15.3498764 3.9612579-18.815979 4.7039948-15.3498764 3.9612579-19.8062897c0 0-2.3150558-6.5670319-9.3044319-5.3269806s-6.3129807 9.131279-6.2002487 13.3023529c.1127319 4.1710815-5.0729332 12.1750412-8.6803513 14.5424042 0 0 1.1273193-9.7285233-3.9456139-15.6865158s-7.6657619-22.7550315-2.8182944-32.3372383 16.2333832-19.1644096 37.6524315-18.0370922c21.4190445 1.1273193 28.7466125 11.9495754 29.4230042 16.5715771s-4.0583496 9.0185471-4.0583496 9.0185471-5.8620529-3.9456139-10.9349823-3.72015c0 0 .6763916 9.4694748-11.4986496 14.6551361l-1.0145874 13.189621 14.8806076 15.7824554s5.6365891-5.2983932 8.5676117-5.2983932c2.9310303 0 5.9747925 2.8182983 5.9747925 4.9601974 0 2.1419067.4509277 4.0583496-2.1419067 6.6511841 0 0-.7891235-2.9310303-1.5782471-2.1419067s-2.1419067 2.7055664-.7891235 6.4257126c1.3527832 3.7201538 2.3673706 10.7095261-1.1273193 17.0225067-3.4946823 6.3129807-16.0079193-.7891235-20.0662613-2.1419067-4.0583498-1.3527833-7.8836672-.1439973-7.8836672-.1439973z" fill="#19282f"/><path d="m106.5167694 77.1532288c-.0742798-.4880371-.2133179-.9353027-.3729858-1.3701172-.145813-.4438477-.336853-.8591309-.508728-1.2871094-.7316284-1.6833496-1.6010132-3.286377-2.4788818-4.8818359-.7905273-1.4099121-1.6185303-2.793457-2.4661865-4.1706543.7252808-.2099609 1.4186401-.4909668 2.0806885-.9389648.409668-.2907715.8272705-.6779785 1.0319824-1.2458496.0602417-.137207.083252-.2854004.0961304-.4370117.0269775-.157959.0085449-.2839355-.0054932-.4125977-.0197144-.2700195-.0686035-.4990234-.1158447-.7272949-.1860962-.9211426-.4215088-1.8046875-.6557617-2.6945801-.2353516-.8876953-.4873657-1.7697754-.7454224-2.6491699-.5106201-1.7607422-1.0566406-3.5097656-1.6133423-5.2548828-.5790405-1.7387695-1.1349487-3.4838867-1.7563477-5.2084961.4237671 1.7834473.8944092 3.5524902 1.3279419 5.331543l1.3565674 5.3178711c.4281006 1.7719727.9157715 3.5507812 1.2388306 5.3139648.0802612.4516602.1542969.8505859.0441284 1.1269531-.1062622.3000488-.3799438.581543-.7127686.8100586-.6713257.4555664-1.541626.7531738-2.3657227.9389648l-.6413574.1445312.3460693.5458984c.9655762 1.5227051 1.9003906 3.0756836 2.8083496 4.6364746.9140015 1.5578613 1.7910156 3.138916 2.5814819 4.7495117.3744507.8054199.7553711 1.638916.9387817 2.454834.0928345.3786621.0581665.8500977.0222168 1.2709961-.0430908.4306641-.1585083.8452148-.3330688 1.234375-.3421021.7880859-1.000061 1.4208984-1.7290039 1.9338379-.7328491.5158691-1.5379028.9404297-2.3504639 1.34375.8515625-.3139648 1.6958618-.6638184 2.4819946-1.142334.7820435-.4682617 1.5404663-1.0800781 1.9959106-1.9379883.2259521-.4228516.3764038-.8886719.4506836-1.3574219.0635377-.4765624.131775-.9201659.0496217-1.4372557z" fill="#19282f"/><path d="m53.8493614 32.3525162c-4.7428207 1.9824982-9.1837349 4.8795891-12.4215279 8.8722458s-5.1910973 9.1479111-4.7787666 14.2718391c1.5063858-3.7762642 3.9082756-7.1918793 6.9524498-9.8867569-3.6707687 7.2590675-3.9027557 16.1675682-.614769 23.6078529-.9400253-5.8948936 1.2175255-12.1963768 5.5733948-16.278019-.1585655 5.9123459-.317131 11.824688-.4756966 17.7370338-.9291-4.0239868-1.0536118-8.35186.4672203-12.1914864s4.8957901-7.0887985 8.9788399-7.7087517 8.6274681 1.9086533 9.6073875 5.9205627c1.4414597-2.9544525 2.8829193-5.908905 4.3243713-8.8633575.1455536 2.3331299.2910995 4.666256.4366455 6.9993858 1.7487869-5.4614754 5.5362473-10.2438698 10.4517975-13.197403 4.9626617-2.981842 10.513176-3.7417145 16.1850204-3.1331673-6.6604691-3.1955757-12.5411377-7.1126442-20.0055008-8.5411758-8.2278441-1.5746438-16.9317396-.8479325-24.6808661 2.3911975z" fill="#467082" opacity=".25"/><path d="m48.0154457 41.9167137c9.1521111-6.4470634 20.8843117-9.1148758 31.924366-7.2593498-5.2390366 1.4749107-9.4736786 6.0546227-10.5345001 11.3929291-1.1581345-1.1587601-1.4641113-3.0805511-.7230911-4.5416794-2.1348801 2.1244507-4.5396271 3.9774208-7.1380882 5.5002441-1.6005554-1.281189-3.8670387-1.460247-5.8556175-.9614754-1.9885826.4987717-3.7689285 1.5902786-5.5138855 2.6665497-.3474426.2142982-.6948891.4286003-1.0423317.6428986-.2470055.1523476-.4940071.3046989-.7410088.4570465-1.2339859.7611084-2.467968 1.522213-3.7019501 2.2833214.7366982-1.543354 1.4771004-3.0932388 2.4337044-4.5108299 2.7907066-4.1355438 7.4484558-6.9569778 12.4062042-7.5150719-5.0830917-.8446884-10.5409164 1.0791969-13.9707184 4.9246826.668644-2.221962 2.3100853-4.1321831 4.4061127-5.1276016" fill="#19282f" opacity=".25"/><path d="m97.7301559 94.7228775c.3706436 4.1271973.7412872 8.2543945 1.1119308 12.3815918.1070709 1.1922226.21035 2.422142-.1536942 3.5624695-.3640366 1.1403275-1.3194275 2.1796799-2.5138474 2.258667-1.5163727.1002808-2.6633911-1.2564087-3.754982-2.3137131-4.3793716-4.2418365-11.9038773-4.702179-16.7676697-1.0258255 1.5808334-3.105278 5.17173-5.0599747 8.6377945-4.7019806-3.7047501-2.089386-8.636795-1.7559433-12.0265961.8131027 1.0498886-1.8071136 2.0997696-3.6142273 3.1496506-5.4213409-1.5761795 1.4805603-3.1523666 2.961113-4.7285538 4.4416733.5512238-2.3820038 1.1024475-4.7640076 1.6536789-7.1460037-2.6482315.9420166-4.7755661 3.2339554-5.5179825 5.9449158-1.5060349-4.0689087-1.0070724-8.8273392 1.3102493-12.4953384-2.0996552 2.2399368-3.2798843 5.3172989-3.2164993 8.3868027-1.6487656-1.9750443-1.5886993-4.9080505-.7512894-7.340744.8374176-2.4326935 2.3302383-4.5827637 3.3679504-6.9369965 1.9559937-4.4374771 2.2252197-9.4222412 2.1565399-14.2712021 1.2732162 3.1798019 2.5464401 6.3596039 3.819664 9.5394058.0373077-1.6773376.0746231-3.3546677.1119385-5.0319977 2.8680115 5.3735504 5.0729675 11.1005783 6.5490112 17.0100479.4742203-2.3646088.9484406-4.7292099 1.4226608-7.0938187 1.0959244 1.8827209 2.1918564 3.7654419 3.2877808 5.6481628.3507004-.5714035.7014008-1.1427994 1.0521011-1.7142029 1.2812958 2.1195068 2.5625839 4.239006 3.8438797 6.3585129.7773514-6.0872879 6.8347168-11.0024567 12.9515915-10.5093994.6299133.3006134.564621 1.2905884.0748062 1.7878189-.4898148.4972229-1.2105179.6653748-1.8599701.9210281-3.6018219 1.4178543-5.1414642 6.4864731-2.9367905 9.6681137" fill="#467082" opacity=".25"/><path d="m71.0531616 94.9762878c1.8794098-1.3797302 3.378746-3.2718811 4.2923584-5.4169083-.0357132 2.0672836-.0714188 4.1345749-.107132 6.2018661-.0059509.344368.0016632.7261887.2361374.9784698.3083954.33181.8393707.2741699 1.2845764.1905594 2.1981277-.4128113 4.3962479-.8256149 6.5943756-1.2384262-.3911362 1.475441-.7822723 2.950882-1.1734161 4.4263153 2.6783218-1.7380981 6.4958725-1.4693604 8.904274.6268234 1.7484207 1.521759 2.6783829 3.752533 3.5503693 5.9001617-1.0106659-3.8621216-1.3667679-7.8946609-1.0485764-11.8741302.1346664 1.0259781-.4662323 2.1057739-1.409111 2.5321045-.9617386.4348679-2.1210632.1930084-3.0197906-.3604736-.8987274-.5534744-1.5899734-1.3800735-2.2644806-2.1919174-.3243179.9201279-.6486435 1.8402557-.9729614 2.760376-.2564163-1.5127106-.5128326-3.0254211-.7692413-4.5381317-1.4491959.5366745-2.8983841 1.0733414-4.34758 1.6100159-1.0908737.4039841-2.4167786.7766647-3.3296738.0556793-.6260376-.4944229-.8245926-1.3428879-.9836121-2.1246109-.3793945-1.8650589-.7587967-3.7301102-1.1381912-5.5951691-.6516418.7473373-1.3032837 1.4946671-1.9549332 2.2419968-.2499313 0-1.2953568-2.973877-1.539566-3.2959595-.574295 1.1147537-.3559113 3.1501617-.4515305 4.4227448-.1174316 1.5628739-.2348632 3.1257401-.3522949 4.6886139z" fill="#19282f"/></svg>