<svg id="Capa_1" enable-background="new 0 0 512 512" height="512" viewBox="0 0 512 512" width="512" xmlns="http://www.w3.org/2000/svg"><path d="m512 256c0 7.32-.31 14.56-.91 21.72-1.21 14.46-3.63 28.58-7.15 42.25-24.02 93.37-99.4 166.14-194.22 186.38-7.04 1.5-14.19 2.72-21.43 3.62-.6.08-1.24.15-1.92.23-5.1.62-10.24 1.07-15.43 1.36-.07.01-.14.01-.21.02-2.91.16-5.83.28-8.76.34-.01.01-.03.01-.04 0-.1.01-.2.02-.3.01h-.18c-1.69.05-3.4.07-5.1.07-.62 0-1.24-.01-1.86-.01-2.84-.01-5.67-.07-8.49-.18-136.74-5.25-246-117.78-246-255.81 0-141.38 114.62-256 256-256 138.36 0 251.08 109.76 255.83 246.96.02.35.03.69.04 1.04.06 1.66.09 3.32.11 4.99.01 1 .02 2.01.02 3.01z" fill="#2864f0"/><path d="m512 256c0 7.32-.31 14.56-.91 21.72-1.21 14.46-3.63 28.58-7.15 42.25-24.02 93.37-99.4 166.14-194.22 186.38-7.04 1.5-14.19 2.72-21.43 3.62-.6.08-1.24.15-1.92.23-5.1.62-10.24 1.07-15.43 1.36-.07.01-.14.01-.21.02-2.91.16-5.83.28-8.76.34-.01.01-.03.01-.04 0-.1.01-.2.02-.3.01h-.18c-1.69.05-3.4.07-5.1.07-.62 0-1.24-.01-1.86-.01-2.5-.02-5-.08-7.49-.18l-76-75.81-95-95 40-30-40-40 40-30-40-40 60-30 35-35 30-60 40 40 30-40 40 40 30-40 94 95h1l75.83 75.96c.02.35.03.69.04 1.04.06 1.66.09 3.32.11 4.99.01 1 .02 2.01.02 3.01z" fill="#0053bf"/><path d="m311 361h30v75h-30z" fill="#eaeaea" transform="matrix(-1 0 0 -1 652 797)"/><path d="m171 361h30v75h-30z" fill="#fff" transform="matrix(-1 0 0 -1 372 797)"/><path d="m241 361h30v75h-30z" fill="#fff" transform="matrix(-1 0 0 -1 512 797)"/><path d="m256 361h15v75h-15z" fill="#eaeaea"/><path d="m311 76h30v75h-30z" fill="#eaeaea" transform="matrix(-1 0 0 -1 652 227)"/><path d="m171 76h30v75h-30z" fill="#fff" transform="matrix(-1 0 0 -1 372 227)"/><path d="m241 76h30v75h-30z" fill="#fff" transform="matrix(-1 0 0 -1 512 227)"/><g fill="#eaeaea"><path d="m256 76h15v75h-15z"/><path d="m383.5 148.5h30v75h-30z" transform="matrix(0 1 -1 0 584.5 -212.5)"/><path d="m383.5 288.5h30v75h-30z" transform="matrix(0 1 -1 0 724.5 -72.5)"/><path d="m383.5 218.5h30v75h-30z" transform="matrix(0 1 -1 0 654.5 -142.5)"/></g><path d="m98.5 148.5h30v75h-30z" fill="#fff" transform="matrix(0 1 -1 0 299.5 72.5)"/><path d="m98.5 288.5h30v75h-30z" fill="#fff" transform="matrix(0 1 -1 0 439.5 212.5)"/><path d="m98.5 218.5h30v75h-30z" fill="#fff" transform="matrix(0 1 -1 0 369.5 142.5)"/><path d="m158.5 158.5h195v195h-195z" fill="#25dcc1"/><path d="m256 158.5h97.5v195h-97.5z" fill="#19aa94"/><path d="m376 376h-240v-240h240zm-195-45h150v-150h-150z" fill="#27ade5"/><path d="m256 136v45h75v150h-75v45h120v-240z" fill="#2284ec"/></svg>