<svg height="511pt" viewBox="-6 0 511 511.99953" width="511pt" xmlns="http://www.w3.org/2000/svg"><path d="m499.394531 229.003906c0 126.492188-102.535156 229.023438-229.015625 229.023438-126.46875 0-229.011718-102.53125-229.011718-229.023438 0-126.480468 102.542968-229.003906 229.011718-229.003906 31.027344 0 60.605469 6.164062 87.585938 17.351562.480468.195313.957031.390626 1.425781.597657 73.007813 30.816406 126.695313 98.421875 137.851563 179.582031 0 .035156.011718.066406.011718.101562 1.410156 10.25 2.140625 20.726563 2.140625 31.371094zm0 0" fill="#f8a28b"/><path d="m497.253906 197.628906c0-.03125-.011718-.0625-.011718-.097656-11.15625-81.160156-64.84375-148.765625-137.851563-179.585938-.46875-.207031-.945313-.398437-1.425781-.597656-26.980469-11.183594-56.558594-17.347656-87.585938-17.347656-13.144531 0-26.027344 1.125-38.570312 3.25 17.039062 2.894531 33.4375 7.65625 48.976562 14.097656.476563.199219.957032.390625 1.421875.597656 73.007813 30.820313 126.699219 98.425782 137.851563 179.585938 0 .035156.011718.066406.011718.097656 1.414063 10.253906 2.140626 20.730469 2.140626 31.375 0 113.335938-82.316407 207.421875-190.421876 225.769532 12.550782 2.128906 25.4375 3.253906 38.589844 3.253906 126.484375 0 229.015625-102.535156 229.015625-229.023438 0-10.644531-.730469-21.121094-2.140625-31.375zm0 0" fill="#f58c79"/><path d="m13.714844 249.066406 130.101562-87.234375c9.265625-6.21875 20.492188-8.683593 31.46875-6.910156 11 1.773437 22.257813-.65625 31.546875-6.886719l17.414063-11.683594 97.503906 145.535157-23.921875 104.640625c-1.859375 8.148437-2.777344 16.40625-2.777344 24.628906 0 21.277344 6.144531 42.28125 17.929688 60.304688 2.898437 4.4375 4.285156 9.449218 4.285156 14.402343 0 8.464844-4.058594 16.765625-11.550781 21.789063-10.101563 6.78125-23.488282 5.519531-32.183594-3.019532l-15.5-15.199218c-17.722656-17.414063-31.394531-38.613282-39.980469-62.058594l-8.402343-22.90625-86.542969 57.894531c-13.820313 9.265625-32.519531 5.210938-41.34375-9.121093-8.511719-13.808594-4.140625-32.054688 9.269531-41.042969.160156-.109375.171875-.285157.117188-.417969-.074219-.140625-.238282-.242188-.421876-.164062-3.417968 1.335937-6.996093 1.984374-10.542968 1.984374-5.667969 0-11.28125-1.65625-16.082032-4.796874-3.308593-2.167969-6.238281-5.046876-8.554687-8.585938-4.464844-6.832031-5.796875-14.847656-4.335937-22.292969 2.292968-11.742187 10.71875-17.785156 12.371093-18.925781.28125-.195312.359375-.589844.164063-.886719 0-.011719-.011719-.019531-.023438-.019531-.183594-.265625-.5625-.339844-.832031-.164062-2.359375.578124-4.757813.851562-7.160156.851562-5.863281 0-11.691407-1.683594-16.644531-4.882812-3.351563-2.167969-6.316407-5.039063-8.609376-8.550782-8.996093-13.753906-5.277343-32.292968 8.316407-41.40625.335937-.230468.671875-.460937 1.007812-.679687.195313-.152344.25-.402344.152344-.578125-.023437-.042969-.066406-.089844-.109375-.109375-.152344-.121094-.390625-.132813-.585938.019531-8.445312 2.914062-17.636718 1.589844-25.035156-3.261719-3.40625-2.210937-6.421875-5.191406-8.8125-8.847656-9-13.769531-5.28125-32.308594 8.304688-41.417969zm0 0" fill="#fdd7bd"/><path d="m497.253906 197.628906-93.523437 64.335938-55.984375 37.535156c-6.445313 4.328125-15.128906 2.53125-19.402344-4l-109.296875-167.09375c-4.269531-6.546875-2.5-15.339844 3.957031-19.675781l54.886719-36.796875 81.5-53.984375c73.007813 30.816406 126.695313 98.421875 137.851563 179.582031 0 .035156.011718.066406.011718.097656zm0 0" fill="#87dbff"/><path d="m223.003906 108.734375 54.882813-36.804687 125.84375 190.035156-55.980469 37.539062c-6.445312 4.324219-15.140625 2.53125-19.410156-4.007812l-109.296875-167.09375c-4.269531-6.539063-2.496094-15.332032 3.960937-19.667969zm0 0" fill="#6fc7ff"/><g fill="#fac5aa"><path d="m64.101562 408.804688 43.289063-23.457032c6.144531-3.320312 13.757813-1.589844 17.890625 4.074219l-34.132812 22.359375c-.078126-.140625-.238282-.242188-.421876-.164062-3.417968 1.335937-6.996093 1.984374-10.542968 1.984374-5.667969-.003906-11.28125-1.65625-16.082032-4.796874zm0 0"/><path d="m39.085938 353.894531 42.351562-22.929687c6.140625-3.328125 13.753906-1.597656 17.886719 4.0625l-34.132813 22.363281-1.46875.699219c-.183594-.261719-.5625-.339844-.835937-.164063-2.355469.582031-4.757813.855469-7.15625.855469-5.863281 0-11.691407-1.6875-16.644531-4.886719zm0 0"/><path d="m14.222656 299.328125 37.300782-20.203125c6.132812-3.316406 13.746093-1.589844 17.886718 4.074219l-29.566406 19.371093c-.152344-.121093-.390625-.128906-.585938.023438-8.445312 2.910156-17.636718 1.585938-25.035156-3.265625zm0 0"/></g></svg>