<?xml version="1.0" encoding="iso-8859-1"?>
<!-- Generator: Adobe Illustrator 19.0.0, SVG Export Plug-In . SVG Version: 6.00 Build 0)  -->
<svg version="1.1" id="Capa_1" xmlns="http://www.w3.org/2000/svg" xmlns:xlink="http://www.w3.org/1999/xlink" x="0px" y="0px"
	 viewBox="0 0 512.004 512.004" style="enable-background:new 0 0 512.004 512.004;" xml:space="preserve">
<circle style="fill:#BBEF89;" cx="256.002" cy="261.768" r="250.236"/>
<path style="fill:#DAECF7;" d="M381.828,362.52c-4.963-11.794-14.863-21.313-31.586-25.819c0.835,0.293-29.755-10.46-64.053-22.516
	H163.917l-19.911,6.875h-0.029l0.005,0.009c-3.654,1.294-39.401,13.962-44.117,15.633c-14.273,3.442-26.199,12.569-31.745,26.227
	c-1.896,4.64-1.553,3.104-10.987,50.706c46.445,60.727,118.423,97.809,197.105,98.342l0,0c57.128,0,107.348-17.564,148.848-47.768
	C382.597,359.835,383.435,366.361,381.828,362.52z"/>
<path style="fill:#B2D9ED;" d="M65.52,371.612c-3.225,16.195-5.996,30.086-8.383,42.029c6.326,8.271,13.153,16.135,20.442,23.547
	c6.489-35.562,13.804-75.643,13.927-76.231c2.428-11.757,8.683-21.279,18.834-27.967c-13.903,4.926-21.92,6.106-31.147,14.283
	C72.39,353.3,67.592,361.378,65.52,371.612z"/>
<path style="fill:#14C0EB;" d="M182.241,501.195c22.822,6.855,46.983,10.613,71.998,10.782c1.338-0.014,6.331,0.07,13.572-0.259
	V369.052h-85.571V501.195z"/>
<path style="fill:#00ADDC;" d="M182.241,501.195c8.415,2.527,17.01,4.632,25.765,6.293V369.053h-25.765V501.195z"/>
<path style="fill:#EAB5AC;" d="M267.812,296.125l0.027-23.523c-27.282,14.571-59.849,14.315-85.598,1.469v22.054l0,0v76.622
	c24.968,6.653,60.551,6.67,85.571,0.01V296.125"/>
<path style="fill:#DB9E95;" d="M208.005,282.321c-9.264-1.54-18.135-4.444-25.765-8.25c0,12.537,0,90.306,0,98.676
	c7.454,1.986,16.6,3.427,25.765,4.249V282.321z"/>
<g>
	<path style="fill:#B2D9ED;" d="M113.311,412.012c-4.269,0-7.729,3.46-7.729,7.729v42.006c5.011,3.776,10.164,7.373,15.459,10.771
		v-52.776C121.04,415.471,117.58,412.012,113.311,412.012z"/>
	<path style="fill:#B2D9ED;" d="M286.191,314.185l-18.378-14.06v211.593c0.036-0.002,0.072-0.002,0.108-0.004l34.83-84.454
		c1.802-3.402,1.25-7.572-1.374-10.389l-13.241-14.208c-3.122-3.349-2.835-8.621,0.63-11.611l17.555-15.153
		c3.543-3.059,4.633-8.094,2.671-12.343L286.191,314.185z"/>
	<path style="fill:#B2D9ED;" d="M140.915,363.995c-1.842,3.99-0.82,8.718,2.507,11.589l18.522,15.987
		c3.137,2.707,3.396,7.479,0.571,10.511l-13.543,14.532c-2.769,2.971-3.35,7.368-1.449,10.956l29.63,72.038
		c1.688,0.546,3.385,1.075,5.088,1.587v-201.07l-18.323,14.06L140.915,363.995z"/>
</g>
<path style="fill:#656582;" d="M371.282,242.11c-20.85-33.811-13.322-60.922-14.93-104.841c0-73.605-55.501-133.658-125.186-137.051
	C155.941-3.447,93.522,60.596,93.522,139.221v51.604c0,21.264-6.737,38.439-14.659,51.284c-7.413,12.021,0.964,27.842,14.659,27.842
	c12.729,0,250.411,0,262.829,0v-0.339l0.272,0.339C370.319,269.952,378.696,254.132,371.282,242.11z"/>
<path style="fill:#585877;" d="M150.106,242.109c7.921-12.845,14.659-30.021,14.659-51.284v-51.604
	c0-63.508,40.726-117.493,96.03-133.976C175.909-19.833,93.522,48.324,93.522,139.221v51.604c0,21.264-6.736,38.439-14.659,51.284
	c-7.413,12.021,0.964,27.842,14.659,27.842c11.075,0,60.266,0,71.241,0C151.069,269.952,142.692,254.131,150.106,242.109z"/>
<g>
	<path style="fill:#EAB5AC;" d="M319.565,146.998h-2.209c0,16.083,0,37.993,0,49.301h2.209c16.258,0,29.438-11.036,29.438-24.652
		C349.003,158.033,335.824,146.998,319.565,146.998z"/>
	<path style="fill:#EAB5AC;" d="M132.14,147.294h-2.182c-16.063,0-29.084,10.903-29.084,24.353
		c0,13.452,13.021,24.355,29.084,24.355h2.182V147.294z"/>
</g>
<g>
	<path style="fill:#DB9E95;" d="M317.355,174.945c0,8.328,0,16.02,0,21.354h2.209c21.921,0,35.819-19.187,26.541-35.327
		C337.209,176.451,317.721,174.858,317.355,174.945z"/>
	<path style="fill:#DB9E95;" d="M103.813,160.971c-9.35,16.024,4.53,35.031,26.145,35.031h2.182v-21.354
		C131.84,174.578,112.617,176.06,103.813,160.971z"/>
</g>
<path style="fill:#F4C3B8;" d="M131.976,144.972v63.997c0,32.305,18.202,62.037,47.25,76.177
	c69.823,33.988,138.672-15.951,138.672-81.991c0-1.561,0-77.531,0-74.883c0-5.566-6.377-8.669-10.791-5.277
	c-8.061,6.194-20.915,13.732-39.472,18.24c-6.207,1.508-11.294-2.488-11.294-8.877V120.63c0-2.897-3.17-4.671-5.636-3.153
	c-17.653,10.865-64.965,35.593-112.634,22.802C134.994,139.455,131.976,141.787,131.976,144.972z"/>
<path style="fill:#EAB5AC;" d="M164.713,203.155c0-1.078,0-37.649,0-59.299c-8.739-0.095-17.684-1.172-26.643-3.576
	c-3.077-0.825-6.094,1.507-6.094,4.692v63.997c0,58.14,55.67,95.232,109.329,85.7C197.773,286.935,164.713,248.916,164.713,203.155z
	"/>
<path style="fill:#FDE57F;" d="M315.507,504.863c43.475-10.605,82.5-32.556,113.752-62.554v-66.847H315.286
	C315.376,511.308,315.084,502.927,315.507,504.863z"/>
<path style="fill:#FDCF49;" d="M354.817,375.461h-39.531c0.09,135.847-0.203,127.467,0.221,129.402
	c13.57-3.311,26.708-7.726,39.311-13.148V375.461H354.817z"/>
<path style="fill:#FDB913;" d="M315.286,480.162h62.921c18.616-10.44,35.766-23.181,51.052-37.854v-36.256H315.286V480.162z"/>
<rect x="315.283" y="406.055" style="fill:#FCA315;" width="39.531" height="74.114"/>
<path style="fill:#FB6467;" d="M429.639,334.694H314.906c-2.748,0-4.976,2.227-4.976,4.976v30.815c0,2.749,2.227,4.976,4.976,4.976
	h114.733c2.749,0,4.976-2.227,4.976-4.976V339.67C434.615,336.922,432.387,334.694,429.639,334.694z"/>
<g>
	<path style="fill:#EF525A;" d="M348.96,370.485V339.67c0-2.749,2.227-4.976,4.976-4.976h-39.03c-2.748,0-4.976,2.227-4.976,4.976
		v30.815c0,2.749,2.227,4.976,4.976,4.976h39.03C351.187,375.461,348.96,373.234,348.96,370.485z"/>
	<path style="fill:#EF525A;" d="M434.615,362.58H309.93c-4.143,0-7.501-3.358-7.501-7.501c0-4.144,3.359-7.501,7.501-7.501h124.685
		c4.143,0,7.501,3.358,7.501,7.501C442.116,359.222,438.758,362.58,434.615,362.58z"/>
</g>
<path style="fill:#DD4050;" d="M342.603,355.078c0-4.144,3.359-7.501,7.501-7.501H309.93c-4.143,0-7.501,3.358-7.501,7.501
	c0,4.144,3.359,7.501,7.501,7.501h40.174C345.962,362.58,342.603,359.221,342.603,355.078z"/>
<path style="fill:#14C0EB;" d="M339.544,480.162h-48.516c-16.828,0-22.13,22.935-6.852,30.251
	c24.828-2.783,48.555-9.191,70.642-18.694C352.921,485.053,346.817,480.162,339.544,480.162z"/>
<path style="fill:#00ADDC;" d="M339.544,495.287h-48.516c-5.721,0-10.722-3.03-13.526-7.562c-4.946,7.996-1.945,18.561,6.673,22.688
	c24.828-2.783,48.555-9.191,70.642-18.694c-0.405-1.424-1.013-2.761-1.773-3.994C350.247,492.256,345.262,495.287,339.544,495.287z"
	/>
<path style="fill:#FB6467;" d="M284.176,510.412c10.584-1.186,20.968-3.032,31.111-5.496v-24.755h-24.258
	C274.2,480.162,268.898,503.097,284.176,510.412z"/>
<path style="fill:#EF525A;" d="M315.286,504.912v-9.625h-24.257c-5.721,0-10.722-3.03-13.526-7.562
	c-4.949,8.001-1.938,18.565,6.673,22.688C294.803,509.221,305.417,507.308,315.286,504.912z"/>
<path style="fill:#14C0EB;" d="M298.986,478.028l42.016-24.258c7.609-4.394,10.217-14.124,5.823-21.734l0,0
	c-4.394-7.609-14.124-10.217-21.734-5.823l-42.016,24.258c-7.609,4.394-10.217,14.124-5.823,21.734l0,0
	C281.646,479.814,291.376,482.421,298.986,478.028z"/>
<path style="fill:#FB6467;" d="M304.084,438.341l21.008-12.129c7.609-4.394,17.34-1.786,21.734,5.823l0,0
	c4.394,7.61,1.786,17.34-5.823,21.734l-21.008,12.129L304.084,438.341z"/>
<path style="fill:#00ADDC;" d="M291.034,464.249l21.008-12.129l0,0l21.009-12.129c5.096-2.942,11.136-2.731,15.894,0.005
	c0.004-2.706-0.669-5.448-2.119-7.96c-4.394-7.609-14.124-10.217-21.734-5.823l-42.016,24.258
	c-7.609,4.394-10.217,14.124-5.824,21.734c1.451,2.513,3.492,4.469,5.839,5.818C283.099,472.531,285.936,467.192,291.034,464.249z"
	/>
<path style="fill:#EF525A;" d="M312.042,452.12L312.042,452.12l21.008-12.129c5.096-2.943,11.136-2.731,15.894,0.005
	c0.004-2.706-0.669-5.448-2.119-7.96c-4.393-7.609-14.124-10.217-21.734-5.824l-21.009,12.129l7.956,13.781L312.042,452.12z"/>
<g>
</g>
<g>
</g>
<g>
</g>
<g>
</g>
<g>
</g>
<g>
</g>
<g>
</g>
<g>
</g>
<g>
</g>
<g>
</g>
<g>
</g>
<g>
</g>
<g>
</g>
<g>
</g>
<g>
</g>
</svg>
