<svg id="Capa_1" enable-background="new 0 0 510 510" height="512" viewBox="0 0 510 510" width="512" xmlns="http://www.w3.org/2000/svg" xmlns:xlink="http://www.w3.org/1999/xlink"><linearGradient id="lg1"><stop offset="0" stop-color="#d4f7ff"/><stop offset="1" stop-color="#a2e3e9"/></linearGradient><linearGradient id="SVGID_1_" gradientUnits="userSpaceOnUse" x1="204.731" x2="334.909" xlink:href="#lg1" y1="338.324" y2="759.343"/><linearGradient id="lg2"><stop offset="0" stop-color="#3b8eac" stop-opacity="0"/><stop offset="1" stop-color="#343168"/></linearGradient><linearGradient id="SVGID_2_" gradientUnits="userSpaceOnUse" x1="301.051" x2="80.448" xlink:href="#lg2" y1="471.297" y2="194.463"/><linearGradient id="SVGID_3_" gradientUnits="userSpaceOnUse" x1="358.773" x2="358.773" xlink:href="#lg2" y1="454.794" y2="647.653"/><linearGradient id="SVGID_4_" gradientUnits="userSpaceOnUse" x1="383.571" x2="207.665" xlink:href="#lg2" y1="465.836" y2="462.129"/><linearGradient id="SVGID_5_" gradientUnits="userSpaceOnUse" x1="249.58" x2="296.543" y1="460.876" y2="531.32"><stop offset="0" stop-color="#ffe548"/><stop offset=".1758" stop-color="#ffde50"/><stop offset=".4446" stop-color="#ffca65"/><stop offset=".7709" stop-color="#ffaa87"/><stop offset="1" stop-color="#ff90a4"/></linearGradient><linearGradient id="SVGID_6_" gradientUnits="userSpaceOnUse" x1="152.712" x2="242.924" xlink:href="#lg1" y1="408.93" y2="499.142"/><linearGradient id="SVGID_7_" gradientTransform="matrix(-1 0 0 1 -1719.351 0)" gradientUnits="userSpaceOnUse" x1="-2076.638" x2="-1986.427" xlink:href="#lg1" y1="408.93" y2="499.142"/><linearGradient id="lg3"><stop offset="0" stop-color="#fccece"/><stop offset="1" stop-color="#fba5c2"/></linearGradient><linearGradient id="SVGID_8_" gradientUnits="userSpaceOnUse" x1="118.364" x2="181.51" xlink:href="#lg3" y1="207.933" y2="279.521"/><linearGradient id="lg4"><stop offset="0" stop-color="#fccece" stop-opacity="0"/><stop offset="1" stop-color="#bb4966"/></linearGradient><linearGradient id="SVGID_9_" gradientUnits="userSpaceOnUse" x1="121.161" x2="175.54" xlink:href="#lg4" y1="245.987" y2="190.785"/><linearGradient id="SVGID_10_" gradientTransform="matrix(-1 0 0 1 -1805 0)" gradientUnits="userSpaceOnUse" x1="-2196.636" x2="-2133.491" xlink:href="#lg3" y1="207.933" y2="279.521"/><linearGradient id="SVGID_11_" gradientTransform="matrix(-1 0 0 1 -1805 0)" gradientUnits="userSpaceOnUse" x1="-2193.839" x2="-2139.46" xlink:href="#lg4" y1="245.987" y2="190.785"/><linearGradient id="SVGID_12_" gradientUnits="userSpaceOnUse" x1="418.089" x2="285.851" xlink:href="#lg4" y1="263.639" y2="175.068"/><linearGradient id="SVGID_13_" gradientUnits="userSpaceOnUse" x1="185.832" x2="416.94" xlink:href="#lg3" y1="163.882" y2="425.886"/><linearGradient id="lg5"><stop offset="0" stop-color="#a34a9e"/><stop offset="1" stop-color="#343168"/></linearGradient><linearGradient id="SVGID_14_" gradientUnits="userSpaceOnUse" x1="248.42" x2="315.697" xlink:href="#lg5" y1="334.01" y2="440.756"/><linearGradient id="lg6"><stop offset="0" stop-color="#343168" stop-opacity="0"/><stop offset="1" stop-color="#1b1464"/></linearGradient><linearGradient id="SVGID_15_" gradientUnits="userSpaceOnUse" x1="255" x2="255" xlink:href="#lg6" y1="327" y2="409.006"/><linearGradient id="SVGID_16_" gradientUnits="userSpaceOnUse" x1="255" x2="255" xlink:href="#lg4" y1="234.391" y2="375"/><linearGradient id="SVGID_17_" gradientUnits="userSpaceOnUse" x1="177.276" x2="208.579" xlink:href="#lg5" y1="220.318" y2="259.658"/><linearGradient id="SVGID_18_" gradientUnits="userSpaceOnUse" x1="299.855" x2="331.158" xlink:href="#lg5" y1="220.318" y2="259.659"/><linearGradient id="SVGID_19_" gradientUnits="userSpaceOnUse" x1="255" x2="255" xlink:href="#lg3" y1="354.242" y2="376.076"/><linearGradient id="SVGID_20_" gradientUnits="userSpaceOnUse" x1="210.298" x2="267.972" xlink:href="#lg5" y1="54.342" y2="154.035"/><linearGradient id="SVGID_21_" gradientUnits="userSpaceOnUse" x1="275.186" x2="257.266" xlink:href="#lg6" y1="80.859" y2="245.229"/><linearGradient id="SVGID_22_" gradientUnits="userSpaceOnUse" x1="138.373" x2="128.251" xlink:href="#lg6" y1="97.468" y2="190.306"/><linearGradient id="SVGID_23_" gradientUnits="userSpaceOnUse" x1="387.692" x2="374.098" xlink:href="#lg6" y1="109.818" y2="137.625"/><linearGradient id="SVGID_24_" gradientUnits="userSpaceOnUse" x1="193.711" x2="193.711" xlink:href="#lg5" y1="170.538" y2="207.87"/><linearGradient id="SVGID_25_" gradientUnits="userSpaceOnUse" x1="316.289" x2="316.289" xlink:href="#lg5" y1="170.538" y2="207.87"/><path d="m433.594 455.105-37.424-34.092h-282.34l-37.424 34.092c-12.84 11.696-22.6 26.376-28.419 42.74-2.107 5.925 2.287 12.151 8.576 12.151h396.875c6.289 0 10.682-6.225 8.576-12.151-5.819-16.364-15.58-31.044-28.42-42.74z" fill="url(#SVGID_1_)"/><path d="m453.443 510h-253.291l-24.606-24.618c-1.928-2.694-5.03-6.909-8.948-11.975-.334-.198-52.772-52.389-52.772-52.389h282.346l37.422 34.085c6.414 5.846 12.074 12.445 16.845 19.626 4.77 7.18 8.663 14.942 11.568 23.123 2.114 5.919-2.285 12.148-8.564 12.148z" fill="url(#SVGID_2_)"/><path d="m433.594 455.105-37.424-34.092h-141.17v88.982h198.438c6.289 0 10.682-6.225 8.576-12.15-5.819-16.364-15.58-31.043-28.42-42.74z" fill="url(#SVGID_3_)"/><path d="m453.443 510h-113.551l-68.974-68.393 33.702-20.59h91.553l37.422 34.085c6.414 5.846 12.074 12.445 16.845 19.626.358.544.717 1.1 1.063 1.656.074.099.148.21.198.321.148.198.272.396.395.606 4.029 6.451 7.353 13.335 9.912 20.54 2.113 5.92-2.286 12.149-8.565 12.149z" fill="url(#SVGID_4_)"/><path d="m224.465 496.445-27.44-27.44 16.117-16.117c23.118-23.118 60.6-23.118 83.718 0l16.117 16.117-27.44 27.44c-16.866 16.865-44.208 16.865-61.072 0z" fill="url(#SVGID_5_)"/><path d="m239.086 441.611-58.153 44.56c-1.703 1.305-4.142.95-5.393-.793-8.055-11.229-36.268-49.018-61.71-64.364 0 0 23.503-21.422 56.459-21.422z" fill="url(#SVGID_6_)"/><path d="m270.914 441.611 58.153 44.56c1.703 1.305 4.142.95 5.393-.793 8.055-11.229 36.268-49.018 61.71-64.364 0 0-23.503-21.422-56.46-21.422z" fill="url(#SVGID_7_)"/><circle cx="137.159" cy="229.241" fill="url(#SVGID_8_)" r="40.166"/><circle cx="129.744" cy="237.274" fill="url(#SVGID_9_)" r="29.455"/><circle cx="372.841" cy="229.241" fill="url(#SVGID_10_)" r="40.166"/><circle cx="380.256" cy="237.274" fill="url(#SVGID_11_)" r="29.455"/><path d="m332.675 229.241c0 22.183 17.983 40.166 40.166 40.166s40.166-17.983 40.166-40.166l-40.166-40.166c-22.183.001-40.166 17.983-40.166 40.166z" fill="url(#SVGID_12_)"/><path d="m257.035 396.953h-4.07c-68.868 0-122.668-59.483-115.775-128.006l9.023-89.701c5.458-54.263 51.13-95.571 105.666-95.571h6.241c54.536 0 100.208 41.308 105.666 95.571l9.023 89.701c6.894 68.523-46.906 128.006-115.774 128.006z" fill="url(#SVGID_13_)"/><path d="m293.932 290.626c-.184.112-.369.223-.555.334-23.568 14.015-53.185 14.015-76.752 0-.186-.111-.371-.222-.555-.334-5.648-3.426-12.449-4.436-18.796-2.603-14.191 4.098-38.248 14.06-53.276 36.739-5.763 8.696-6.712 19.717-2.719 29.355 11.993 28.948 46.1 92.763 113.723 92.763s101.73-63.815 113.723-92.763c3.993-9.638 3.044-20.659-2.719-29.355-15.028-22.679-39.085-32.64-53.276-36.739-6.349-1.834-13.15-.824-18.798 2.603z" fill="url(#SVGID_14_)"/><path d="m218.729 357.706c1.972.729 4.01 1.281 6.102 1.501 5.696.599 11.493-.735 16.408-3.901 8.38-5.398 19.143-5.398 27.523 0 4.915 3.166 10.712 4.5 16.407 3.901 2.091-.22 4.13-.772 6.102-1.501 12.869-4.757 41.117-18.445 58.061-51.099-12.81-10.318-26.977-15.804-36.604-18.584-6.347-1.833-13.148-.823-18.796 2.603-.184.112-.369.223-.555.333-23.568 14.015-53.185 14.015-76.752 0-.186-.111-.371-.222-.555-.333-5.648-3.426-12.449-4.436-18.796-2.603-9.628 2.78-23.795 8.266-36.604 18.584 16.942 32.654 45.19 46.342 58.059 51.099z" fill="url(#SVGID_15_)"/><path d="m290.975 276.278-9.198-68.458h-53.554l-9.198 68.458c-1.298 9.659 4.469 18.984 13.783 21.853 14.435 4.445 29.949 4.445 44.384 0 9.314-2.868 15.081-12.194 13.783-21.853z" fill="url(#SVGID_16_)"/><path d="m218.843 250.102c-2.761 0-5-2.239-5-5 0-10.654-9.031-19.321-20.132-19.321s-20.133 8.667-20.133 19.321c0 2.761-2.239 5-5 5s-5-2.239-5-5c0-16.168 13.518-29.321 30.133-29.321s30.132 13.153 30.132 29.321c0 2.761-2.239 5-5 5z" fill="url(#SVGID_17_)"/><path d="m341.422 250.102c-2.762 0-5-2.239-5-5 0-10.654-9.031-19.321-20.133-19.321s-20.133 8.667-20.133 19.321c0 2.761-2.238 5-5 5s-5-2.239-5-5c0-16.168 13.518-29.321 30.133-29.321s30.133 13.153 30.133 29.321c0 2.761-2.238 5-5 5z" fill="url(#SVGID_18_)"/><path d="m268.762 355.306c-8.38-5.398-19.143-5.398-27.523 0-6.647 4.281-14.907 5.225-22.348 2.554l-1.552-.557c-2.602-.934-4.376 2.637-2.059 4.146l7.642 4.976c7.008 4.563 15.691 5.749 23.666 3.232 5.476-1.728 11.351-1.728 16.827 0 7.975 2.517 16.658 1.331 23.666-3.232l7.642-4.976c2.317-1.509.544-5.08-2.059-4.146l-1.552.557c-7.443 2.671-15.704 1.727-22.35-2.554z" fill="url(#SVGID_19_)"/><path d="m400.635 121.486c-9.405 9.059-20.379 12.383-20.379 12.383v25.644c0 6.488-1.001 12.927-2.966 19.106l-10.307 32.367c0-40.685-20.12-43.502-20.12-43.502-23.889-10.06-18.946-43.502-18.946-43.502-37.904 54.378-126.887 26.373-126.887 26.373 0-18.958 18.958-26.373 18.958-26.373-42.477 0-42.662 25.113-42.662 25.545 0 16.388-6.315 32.157-17.648 44.009l-16.659 17.45-8.626-25.508c-4.214-12.421-4.622-25.904-.643-38.398.741-2.311 1.607-4.56 2.632-6.612-12.989 3.016-30.143-2.36-38.411-5.462-2.966-1.1-4.721-4.14-4.214-7.267 2.768-17.228 16.734-70.494 83.569-70.494-9.751-6.587-15.683-15.362-18.798-21.133-1.743-3.213-.395-7.217 2.929-8.713 32.17-14.385 188.853-77.365 197.764 56.281 15.51-10.913 38.312 6.686 43.7 30.081.643 2.794-.222 5.735-2.286 7.725z" fill="url(#SVGID_20_)"/><path d="m327.916 123.983 12.359-29.451-1.305.852c-39.153 25.569-82.76 43.558-128.554 53.03l-9.386 1.942s88.982 28.005 126.886-26.373z" fill="url(#SVGID_21_)"/><path d="m177.325 105.494-14.16-1.607c-21.223-2.409-42.444 4.531-58.143 19.013l-10.283 9.487c.75 1.165 1.852 2.108 3.232 2.62 8.268 3.102 25.422 8.478 38.411 5.462 6.826-12.614 17.312-22.867 30.077-29.407z" fill="url(#SVGID_22_)"/><path d="m400.635 121.486c1.994-1.923 2.856-4.733 2.332-7.44-15.663-6.398-33.031-7.155-33.031-7.155 11.432 12.668 10.32 26.979 10.32 26.979s10.974-3.325 20.379-12.384z" fill="url(#SVGID_23_)"/><path d="m193.711 167.448c-10.589 0-20.393 3.351-28.414 9.05-5.687 4.041-6.391 12.22-1.458 17.153l.696.696c3.925 3.925 10.039 4.281 14.604 1.123 4.138-2.863 9.159-4.54 14.572-4.54s10.434 1.677 14.572 4.54c4.564 3.158 10.679 2.802 14.604-1.123l.696-.696c4.933-4.933 4.229-13.112-1.458-17.153-8.021-5.699-17.826-9.05-28.414-9.05z" fill="url(#SVGID_24_)"/><path d="m316.289 167.448c-10.589 0-20.393 3.351-28.414 9.05-5.687 4.041-6.391 12.22-1.458 17.153l.696.696c3.925 3.925 10.039 4.281 14.604 1.123 4.138-2.863 9.159-4.54 14.572-4.54s10.434 1.677 14.572 4.54c4.564 3.158 10.679 2.802 14.604-1.123l.696-.696c4.933-4.933 4.229-13.112-1.458-17.153-8.021-5.699-17.825-9.05-28.414-9.05z" fill="url(#SVGID_25_)"/></svg>