<?xml version="1.0" encoding="iso-8859-1"?>
<!-- Generator: Adobe Illustrator 19.0.0, SVG Export Plug-In . SVG Version: 6.00 Build 0)  -->
<svg version="1.1" id="Layer_1" xmlns="http://www.w3.org/2000/svg" xmlns:xlink="http://www.w3.org/1999/xlink" x="0px" y="0px"
	 viewBox="0 0 511.999 511.999" style="enable-background:new 0 0 511.999 511.999;" xml:space="preserve">
<path style="fill:#8AE9FF;" d="M402.855,147.257c-33.057-33.057-75.295-53.596-120.964-59.24l22.054-22.054
	c12.762-12.762,12.762-33.452,0-46.213c-12.762-12.762-33.452-12.762-46.213,0l-79.303,79.303
	c-12.762,12.762-12.762,33.452,0,46.213l79.303,79.303c6.381,6.381,14.744,9.571,23.107,9.571c8.363,0,16.726-3.19,23.107-9.571
	c12.762-12.762,12.762-33.452,0-46.213L279.29,153.7c67.44,11.149,119.04,69.864,119.04,140.414
	c0,78.481-63.85,142.33-142.33,142.33s-142.33-63.85-142.33-142.33c0-18.047-14.63-32.677-32.678-32.677
	s-32.678,14.63-32.678,32.677c0,55.476,21.603,107.629,60.83,146.856c39.227,39.227,91.381,60.83,146.856,60.83
	s107.629-21.603,146.856-60.83c39.227-39.227,60.831-91.381,60.831-146.856S442.083,186.484,402.855,147.257z"/>
<g>
	<path style="fill:#248A9C;" d="M255.999,511.999c-58.2,0-112.916-22.665-154.069-63.818
		c-41.153-41.152-63.817-95.868-63.817-154.068c0-23.643,19.234-42.877,42.878-42.877s42.878,19.234,42.878,42.877
		c0,72.858,59.274,132.131,132.131,132.131s132.131-59.274,132.131-132.131c0-51.341-29.045-96.356-72.845-118.191
		c12.455,16.774,11.078,40.653-4.127,55.858c-8.098,8.098-18.866,12.559-30.319,12.559c-11.453,0-22.22-4.46-30.319-12.559
		l-79.302-79.302c-8.098-8.098-12.559-18.866-12.559-30.319s4.46-22.221,12.559-30.319l79.302-79.302
		c16.718-16.717,43.921-16.717,60.639,0c8.099,8.098,12.559,18.866,12.559,30.319s-4.46,22.22-12.559,30.319l-8.108,8.107
		c40.479,8.822,77.159,28.903,107.017,58.762c41.153,41.153,63.817,95.869,63.817,154.069s-22.665,112.916-63.818,154.069
		C368.915,489.335,314.199,511.999,255.999,511.999z M80.99,271.635c-12.395,0-22.479,10.083-22.479,22.478
		c0,52.751,20.542,102.344,57.842,139.644c37.3,37.301,86.894,57.843,139.645,57.843s102.344-20.542,139.644-57.842
		c37.301-37.3,57.843-86.894,57.843-139.645s-20.542-102.344-57.842-139.644l0,0c-31.437-31.438-71.206-50.916-115.003-56.329
		c-3.869-0.478-7.126-3.119-8.394-6.805c-1.268-3.686-0.323-7.773,2.433-10.529l22.054-22.054c4.246-4.245,6.584-9.891,6.584-15.894
		c0-6.005-2.338-11.649-6.584-15.894c-8.764-8.765-23.025-8.765-31.789,0l-79.302,79.302c-4.246,4.246-6.585,9.891-6.585,15.894
		c0,6.005,2.338,11.649,6.584,15.894l79.303,79.302c4.245,4.246,9.89,6.584,15.894,6.584c6.005,0,11.649-2.338,15.894-6.584
		c8.764-8.764,8.764-23.025,0-31.789l-24.656-24.656c-3.133-3.133-3.885-7.932-1.859-11.873c2.025-3.942,6.367-6.123,10.735-5.402
		c35.221,5.823,67.501,24.062,90.892,51.358c23.656,27.606,36.685,62.807,36.685,99.12c0,84.105-68.424,152.53-152.53,152.53
		s-152.53-68.425-152.53-152.53C103.469,281.719,93.385,271.635,80.99,271.635z"/>
	<path style="fill:#248A9C;" d="M246.82,185.141c-2.61,0-5.221-0.995-7.212-2.987l-1.57-1.57c-3.983-3.983-3.983-10.441,0-14.425
		c3.983-3.983,10.441-3.983,14.425,0l1.57,1.57c3.983,3.983,3.983,10.441,0,14.425C252.041,184.145,249.43,185.141,246.82,185.141z"
		/>
	<path style="fill:#248A9C;" d="M223.198,161.583c-2.611,0-5.22-0.995-7.212-2.987l-25.948-25.949
		c-3.983-3.983-3.983-10.441,0-14.424c3.983-3.982,10.441-3.983,14.424,0l25.948,25.949c3.983,3.983,3.983,10.441,0,14.424
		C228.419,160.586,225.808,161.583,223.198,161.583z"/>
</g>
<g>
</g>
<g>
</g>
<g>
</g>
<g>
</g>
<g>
</g>
<g>
</g>
<g>
</g>
<g>
</g>
<g>
</g>
<g>
</g>
<g>
</g>
<g>
</g>
<g>
</g>
<g>
</g>
<g>
</g>
</svg>
